<svg width="1194" height="672" viewBox="0 0 1194 672" fill="none" xmlns="http://www.w3.org/2000/svg">
<g clip-path="url(#clip0_1_2190)">
<rect width="1194" height="672" fill="white"/>
<g clip-path="url(#clip1_1_2190)">
<rect width="1194" height="241" fill="white"/>
<rect width="1194" height="241" fill="#C5EFFF"/>
<g opacity="0.5" clip-path="url(#clip2_1_2190)">
<path d="M1058.06 241.262C1064.85 236.534 1069.96 229.766 1072.63 221.942C1075.3 214.117 1075.41 205.646 1072.93 197.757C1070.45 189.87 1065.51 182.979 1058.83 178.087C1052.16 173.195 1044.09 170.557 1035.82 170.557C1034.64 170.557 1033.45 170.63 1032.3 170.744C1027.66 155.704 1018.66 142.371 1006.45 132.424C994.24 122.475 979.351 116.359 963.664 114.843C947.976 113.327 932.19 116.479 918.293 123.903C904.397 131.327 893.011 142.691 885.569 156.564C880.696 150.019 873.569 145.507 865.561 143.895C861.085 138.303 855.404 133.788 848.941 130.687C842.478 127.586 835.399 125.979 828.229 125.982C826.422 125.984 824.615 126.092 822.82 126.305C820.436 119.847 816.712 113.963 811.893 109.041C807.074 104.119 801.268 100.268 794.855 97.7419C788.443 95.2154 781.567 94.0697 774.68 94.3798C767.793 94.691 761.049 96.4499 754.89 99.5424C748.732 102.635 743.297 106.992 738.942 112.328C734.587 117.663 731.408 123.858 729.616 130.504C727.824 137.151 727.458 144.102 728.543 150.899C729.627 157.697 732.137 164.19 735.908 169.952C728.612 168.767 721.146 169.162 714.017 171.11C706.887 173.059 700.262 176.514 694.587 181.245C684.11 172.14 671.243 166.222 657.506 164.186C657.506 162.966 657.6 161.736 657.6 160.506C657.596 141.487 650.603 123.13 637.948 108.915C625.294 94.7015 607.857 85.615 588.941 83.382C570.026 81.1469 550.946 85.921 535.32 96.7946C519.695 107.669 508.606 123.89 504.158 142.384C494.892 134.275 483.543 128.907 471.388 126.885C459.233 124.864 446.755 126.266 435.355 130.938C423.956 135.609 414.086 143.362 406.858 153.327C399.631 163.292 395.33 175.073 394.439 187.344C385.005 177.177 372.927 169.827 359.553 166.116C346.179 162.405 332.035 162.477 318.7 166.323C317.413 155.636 314.031 145.304 308.746 135.921C303.463 126.537 296.378 118.285 287.899 111.636C279.421 104.985 269.712 100.068 259.33 97.1644C248.949 94.2609 238.095 93.4275 227.391 94.7121C216.686 95.9968 206.34 99.3733 196.943 104.651C187.545 109.926 179.281 117 172.621 125.467C159.171 142.565 153.074 164.298 155.672 185.884C145.475 189.121 136.573 195.514 130.254 204.136C123.936 212.757 120.528 223.164 120.523 233.848C120.523 236.329 120.704 238.807 121.066 241.262H1058.06Z" fill="white"/>
<g clip-path="url(#clip3_1_2190)">
<path d="M796.885 113.725L791.636 116.265C789.339 117.041 786.914 117.121 784.584 116.498L778.631 114.908C776.714 114.395 774.7 114.362 772.767 114.811L766.606 116.24V94.9136L772.794 93.4778C774.71 93.0333 776.705 93.0631 778.606 93.5642L784.73 95.1782C787.075 95.7965 789.515 95.703 791.822 94.9063L796.885 92.3987L796.885 113.725Z" fill="#F6F2F3"/>
<path d="M777.69 103.329C777.794 102.491 778.288 101.883 778.88 101.339C780.316 100.017 782.507 99.7886 784.2 100.777C785.897 101.768 786.775 103.799 786.321 105.691C786.289 105.824 786.276 105.974 786.144 106.063C786.061 106.012 786.033 105.935 786.024 105.842C785.912 104.719 785.399 104.035 784.462 103.75C783.521 103.465 782.624 103.783 781.946 104.656C781.659 105.025 781.335 105.343 780.895 105.522C779.386 106.138 777.882 105.108 777.69 103.329Z" fill="#CB2F3B"/>
<path d="M777.69 103.329C777.882 105.108 779.386 106.138 780.896 105.522C781.335 105.343 781.659 105.025 781.946 104.656C782.624 103.783 783.521 103.465 784.462 103.75C785.4 104.035 785.912 104.719 786.024 105.842C786.033 105.936 786.061 106.012 786.144 106.063C785.69 107.696 784.571 108.642 782.978 109.052C779.743 109.884 776.716 106.872 777.52 103.638C777.548 103.524 777.552 103.387 777.69 103.329Z" fill="#02479F"/>
<path d="M776.535 98.4504C776.453 98.5825 776.4 98.6719 776.343 98.759C775.65 99.82 774.947 100.875 774.268 101.945C774.098 102.212 773.973 102.191 773.737 102.035C773.499 101.879 773.444 101.78 773.622 101.518C774.344 100.455 775.036 99.372 775.743 98.2988C775.811 98.1957 775.856 98.012 776.05 98.1338C776.21 98.2343 776.367 98.3404 776.535 98.4504Z" fill="black"/>
<path d="M790.334 101.683C790.184 101.791 790.03 101.898 789.88 102.01C789.725 102.126 789.664 102.004 789.594 101.902C788.833 100.78 788.075 99.6566 787.309 98.539C787.126 98.2728 787.387 98.2405 787.504 98.1619C787.621 98.0833 787.752 97.8489 787.927 98.1066C788.698 99.2421 789.47 100.377 790.241 101.513C790.271 101.556 790.292 101.605 790.334 101.683Z" fill="black"/>
<path d="M777.451 99.1271C777.389 99.2225 777.331 99.3112 777.274 99.3996C776.589 100.448 775.897 101.492 775.223 102.548C775.07 102.788 774.956 102.862 774.702 102.667C774.502 102.515 774.356 102.444 774.555 102.153C775.281 101.091 775.972 100.005 776.683 98.9316C776.746 98.8363 776.769 98.6223 776.971 98.7422C777.146 98.8459 777.354 98.9168 777.451 99.1271Z" fill="black"/>
<path d="M777.535 110.291C777.496 110.505 777.273 110.538 777.137 110.659C776.993 110.787 776.904 110.708 776.813 110.573C776.063 109.462 775.314 108.351 774.551 107.249C774.393 107.021 774.514 106.931 774.686 106.86C774.831 106.799 774.954 106.485 775.152 106.774C775.929 107.909 776.698 109.049 777.47 110.188C777.49 110.217 777.508 110.248 777.535 110.291Z" fill="black"/>
<path d="M775.564 97.889C775.488 98.0041 775.429 98.0921 775.371 98.1807C774.694 99.2158 774.008 100.245 773.346 101.29C773.173 101.564 773.056 101.598 772.778 101.411C772.513 101.234 772.531 101.12 772.688 100.886C773.397 99.8292 774.087 98.7599 774.784 97.6955C774.869 97.5659 774.942 97.3869 775.144 97.5351C775.29 97.643 775.491 97.6983 775.564 97.889Z" fill="black"/>
<path d="M775.666 111.573C775.609 111.782 775.392 111.822 775.249 111.939C775.122 112.043 775.031 111.966 774.951 111.848C774.188 110.721 773.421 109.596 772.656 108.471C772.482 108.216 772.743 108.182 772.861 108.1C772.983 108.015 773.114 107.791 773.289 108.05C774.063 109.19 774.839 110.33 775.613 111.47C775.632 111.499 775.645 111.532 775.666 111.573Z" fill="black"/>
<path d="M789.893 99.0248C789.746 99.1309 789.591 99.2365 789.443 99.351C789.288 99.4711 789.224 99.3508 789.155 99.2491C788.856 98.8117 788.568 98.3665 788.258 97.9376C788.118 97.7442 788.202 97.6447 788.364 97.5719C788.515 97.5038 788.655 97.2101 788.842 97.4576C789.192 97.9224 789.503 98.4165 789.83 98.8989C789.85 98.9276 789.862 98.9612 789.893 99.0248Z" fill="black"/>
<path d="M786.815 98.6292C786.941 98.6123 786.98 98.7166 787.034 98.7959C787.321 99.2162 787.592 99.6481 787.897 100.055C788.113 100.344 787.878 100.403 787.713 100.52C787.554 100.634 787.424 100.767 787.262 100.499C787.017 100.094 786.735 99.7116 786.472 99.3174C786.285 99.0361 786.464 98.6789 786.815 98.6292Z" fill="black"/>
<path d="M790.742 101.421C790.595 101.407 789.496 99.8244 789.562 99.7578C789.696 99.6219 789.852 99.4964 790.022 99.4108C790.209 99.3168 790.252 99.5211 790.324 99.624C790.589 99.9993 790.849 100.378 791.095 100.765C791.157 100.862 791.349 100.964 791.185 101.11C791.044 101.236 790.873 101.33 790.742 101.421Z" fill="black"/>
<path d="M789.381 102.281C789.311 102.475 789.094 102.509 788.959 102.635C788.82 102.766 788.743 102.667 788.669 102.557C788.361 102.104 788.058 101.648 787.746 101.198C787.564 100.936 787.826 100.899 787.945 100.817C788.065 100.735 788.199 100.512 788.373 100.77C788.687 101.24 789.007 101.706 789.324 102.174C789.343 102.203 789.357 102.235 789.381 102.281Z" fill="black"/>
<path d="M789.432 106.946C789.385 107.021 789.341 107.097 789.293 107.169C789.032 107.568 788.747 107.954 788.515 108.369C788.336 108.69 788.183 108.546 787.975 108.427C787.735 108.289 787.702 108.167 787.873 107.935C788.156 107.552 788.4 107.14 788.667 106.745C788.728 106.654 788.77 106.467 788.927 106.561C789.101 106.666 789.308 106.742 789.432 106.946Z" fill="black"/>
<path d="M775.227 108.882C775.179 109.122 774.953 109.151 774.818 109.273C774.698 109.381 774.603 109.323 774.519 109.198C774.216 108.744 773.908 108.293 773.597 107.845C773.51 107.721 773.501 107.621 773.652 107.557C773.82 107.487 774.002 107.187 774.128 107.338C774.533 107.822 774.867 108.365 775.227 108.882Z" fill="black"/>
<path d="M789.754 107.16C790.177 107.184 790.378 107.565 790.198 107.844C789.97 108.199 789.724 108.544 789.508 108.907C789.362 109.153 789.25 109.269 788.946 109.07C788.651 108.876 788.683 108.737 788.861 108.495C789.121 108.141 789.345 107.76 789.591 107.395C789.655 107.301 789.685 107.158 789.754 107.16Z" fill="black"/>
<path d="M790.808 107.781C790.948 107.879 791.128 107.969 791.26 108.105C791.398 108.248 791.208 108.351 791.145 108.453C790.915 108.83 790.653 109.186 790.43 109.567C790.283 109.818 790.163 109.86 789.899 109.694C789.616 109.515 789.607 109.378 789.794 109.126C790.056 108.772 790.28 108.39 790.527 108.024C790.592 107.927 790.625 107.787 790.808 107.781Z" fill="black"/>
<path d="M788.085 109.005C788.029 109.093 787.975 109.181 787.918 109.268C787.689 109.621 787.444 109.965 787.233 110.329C787.078 110.594 786.961 110.698 786.646 110.493C786.333 110.289 786.422 110.144 786.578 109.92C786.839 109.546 787.076 109.156 787.334 108.779C787.391 108.695 787.422 108.5 787.592 108.613C787.76 108.725 787.977 108.785 788.085 109.005Z" fill="black"/>
<path d="M775.435 109.306C775.553 109.318 776.643 110.935 776.582 110.993C776.443 111.124 776.286 111.244 776.117 111.33C775.919 111.431 775.899 111.21 775.83 111.114C775.561 110.742 775.3 110.363 775.052 109.976C774.99 109.878 774.791 109.774 774.968 109.624C775.116 109.5 775.288 109.405 775.435 109.306Z" fill="black"/>
<path d="M789.027 109.647C788.671 110.178 788.348 110.724 787.955 111.214C787.828 111.372 787.643 111.086 787.48 111.014C787.293 110.932 787.343 110.816 787.433 110.681C787.726 110.244 788.008 109.8 788.298 109.362C788.361 109.268 788.423 109.117 788.575 109.252C788.723 109.383 788.97 109.405 789.027 109.647Z" fill="black"/>
<path d="M788.841 111.914C788.647 111.78 788.466 111.691 788.336 111.555C788.197 111.41 788.388 111.302 788.452 111.196C788.682 110.82 788.943 110.462 789.168 110.083C789.316 109.832 789.444 109.78 789.695 109.97C789.898 110.124 790.047 110.209 789.833 110.484C789.552 110.845 789.324 111.248 789.069 111.629C789.005 111.725 788.925 111.81 788.841 111.914Z" fill="black"/>
<path d="M767.432 96.2141H766.305V140.319H767.432V96.2141Z" fill="#6C6C6C"/>
<path d="M766.869 96.5897C767.941 96.5897 768.81 95.7207 768.81 94.6487C768.81 93.5768 767.941 92.7078 766.869 92.7078C765.797 92.7078 764.928 93.5768 764.928 94.6487C764.928 95.7207 765.797 96.5897 766.869 96.5897Z" fill="#FEE109"/>
<path d="M697.807 72.9408H662.643L658.736 75.7458V94.4795C658.736 94.4795 645.212 106.902 632.79 108.304C620.367 109.707 602.034 104.598 602.034 104.598V94.9053L577.164 79.0517L569.801 80.4041V126.086H697.807V72.9408Z" fill="#AEDFF3"/>
<path d="M658.736 75.7457H692.497V126.087H697.807V72.9408H662.643L658.736 75.7457Z" fill="#96CEE5"/>
<path d="M620.668 110.253C637.698 110.954 647.015 108.049 658.736 96.7287V94.4795C658.736 94.4795 645.212 106.902 632.79 108.304C620.367 109.707 602.034 104.598 602.034 104.598V94.9052L577.164 79.0516L569.801 80.4041L595.422 97.0292V103.942C595.422 103.942 603.637 109.552 620.668 110.253Z" fill="#96CEE5"/>
<path d="M577.941 89.9904C577.941 89.3472 577.419 88.8258 576.776 88.8258C576.133 88.8258 575.611 89.3472 575.611 89.9904V92.3196C575.611 92.9628 576.133 93.4842 576.776 93.4842C577.419 93.4842 577.941 92.9628 577.941 92.3196V89.9904Z" fill="#3D92A7"/>
<path d="M584.152 94.6488C584.152 94.0056 583.63 93.4842 582.987 93.4842C582.344 93.4842 581.823 94.0056 581.823 94.6488V96.978C581.823 97.6212 582.344 98.1426 582.987 98.1426C583.63 98.1426 584.152 97.6212 584.152 96.978V94.6488Z" fill="#3D92A7"/>
<path d="M590.363 99.3072C590.363 98.664 589.842 98.1425 589.198 98.1425C588.555 98.1425 588.034 98.664 588.034 99.3072V101.636C588.034 102.28 588.555 102.801 589.198 102.801C589.842 102.801 590.363 102.28 590.363 101.636V99.3072Z" fill="#3D92A7"/>
<path d="M667.358 81.8382H667.095C666.31 81.8382 665.674 82.4745 665.674 83.2595V85.0753C665.674 85.8603 666.31 86.4966 667.095 86.4966H667.358C668.143 86.4966 668.779 85.8603 668.779 85.0753V83.2595C668.779 82.4745 668.143 81.8382 667.358 81.8382Z" fill="#3D92A7"/>
<path d="M675.51 81.8382H675.247C674.462 81.8382 673.826 82.4745 673.826 83.2595V85.0753C673.826 85.8603 674.462 86.4966 675.247 86.4966H675.51C676.295 86.4966 676.932 85.8603 676.932 85.0753V83.2595C676.932 82.4745 676.295 81.8382 675.51 81.8382Z" fill="#3D92A7"/>
<path d="M683.662 81.8382H683.399C682.614 81.8382 681.978 82.4745 681.978 83.2595V85.0753C681.978 85.8603 682.614 86.4966 683.399 86.4966H683.662C684.447 86.4966 685.084 85.8603 685.084 85.0753V83.2595C685.084 82.4745 684.447 81.8382 683.662 81.8382Z" fill="#3D92A7"/>
<path d="M636.66 50.7822H620.355V59.3227H636.66V50.7822Z" fill="#FEFBDB"/>
<path d="M629.183 46.5243V43.7946H627.63V46.5243C623.414 46.7194 619.598 48.7872 617.452 51.5585H639.563C637.417 48.7872 633.601 46.7194 629.183 46.5243Z" fill="#EA3420"/>
<path d="M636.422 75.8273C636.822 69.2154 637.724 56.9934 637.724 56.9934H619.291C619.291 56.9934 620.193 69.2154 620.593 75.8273C620.994 82.4394 617.187 124.615 617.187 124.615L628.508 125.216L639.828 124.615C639.828 124.615 636.021 82.4394 636.422 75.8273Z" fill="#E0F6FF"/>
<path d="M637.108 65.5588C637.433 60.9391 637.724 56.9934 637.724 56.9934H628.507V65.5588H637.108Z" fill="#CAE1E8"/>
<path d="M628.407 95.7885C629.692 95.7885 630.736 96.8321 630.736 98.1176V102.776H626.077V98.1176C626.077 96.8321 627.121 95.7885 628.407 95.7885Z" fill="#3E92A8"/>
<path d="M628.407 76.704C629.692 76.704 630.736 77.7476 630.736 79.0331V83.6916H626.077V79.0331C626.077 77.7476 627.121 76.704 628.407 76.704Z" fill="#3E92A8"/>
<path d="M628.407 114.873C629.692 114.873 630.736 115.917 630.736 117.202V121.861H626.077V117.202C626.077 115.917 627.121 114.873 628.407 114.873Z" fill="#3E92A8"/>
<path d="M642.483 60.6124V59.31H614.532V60.6124H616.736V65.0204H614.532V66.3228H642.483V65.0204H640.279V60.6124H642.483ZM629.159 60.6124H633.416V65.0204H629.159V60.6124ZM627.856 65.0204H623.599V60.6124H627.856V65.0204ZM618.039 60.6124H622.296V65.0204H618.039V60.6124ZM638.976 65.0204H634.719V60.6124H638.976V65.0204Z" fill="#5EA5BC"/>
<path d="M750.201 143.623C750.201 143.623 736 123.263 722.777 111.692C709.553 100.121 691.295 94.1103 687.839 94.8616C684.382 95.6129 682.479 96.6148 679.624 97.1658C676.769 97.7168 670.508 99.0692 660.039 106.382C649.57 113.696 642.156 120.858 632.088 121.685C622.02 122.512 614.657 116.726 606.542 116.501C598.428 116.275 596.549 116.501 594.295 114.773C592.041 113.045 580.32 98.0174 565.894 97.191C551.468 96.3645 541.851 104.329 538.62 110.866C535.389 117.402 527.725 130.1 518.108 137.238C508.49 144.376 489.481 165.264 479.939 184.348C470.397 203.432 472.701 241 472.701 241H750.201V143.623Z" fill="#4FC000"/>
<path d="M516.48 189.282C516.48 189.282 519.786 186.877 521.489 183.371C523.192 179.865 523.593 172.552 526.598 164.637C529.603 156.723 538.82 147.807 544.38 140.494C549.94 133.181 551.743 130.326 553.497 131.177C555.25 132.029 556.302 133.832 555.6 135.485C554.899 137.138 543.278 151.013 538.92 157.525C534.563 164.036 530.405 170.298 530.756 175.507C531.106 180.717 531.198 191.132 530.25 193.112C529.303 195.093 519.936 198.499 519.936 198.499L516.48 189.282Z" fill="#00A200"/>
<path d="M561.912 108.286C567.021 115.148 567.372 121.209 568.824 126.218C570.277 131.227 572.882 134.733 578.241 136.637C583.601 138.54 595.322 145.252 601.183 149.31C607.043 153.367 610.7 150.662 613.855 147.757C616.24 145.561 632.435 128.24 640.641 119.365C637.927 120.6 635.13 121.435 632.088 121.685C622.02 122.511 614.657 116.726 606.542 116.501C598.428 116.275 596.549 116.501 594.295 114.773C592.041 113.044 580.32 98.0173 565.894 97.1908C560.691 96.8927 556.117 97.742 552.239 99.2516C554.596 100.797 558.57 103.797 561.912 108.286Z" fill="#00A200"/>
<path d="M750.201 143.623C750.201 143.623 736.001 123.263 722.777 111.692C716.869 106.523 709.96 102.467 703.812 99.6248C686.261 98.375 675.733 108.002 673.964 111.542C671.96 115.549 653.928 133.081 647.716 136.186C641.505 139.292 631.387 146.304 627.58 153.818C623.773 161.332 627.079 167.899 627.079 167.899L637.773 241H750.201V143.623Z" fill="#00A200"/>
<path d="M313.664 241C315.017 232.134 321.854 205.761 328.541 208.767C335.228 211.772 335.078 218.084 336.956 217.257C338.835 216.431 350.23 204.159 356.391 199.901C362.552 195.643 369.515 190.835 374.174 184.673C378.832 178.512 388.65 166.841 400.12 168.144C411.591 169.446 418.303 176.058 429.423 203.307C440.543 230.556 445.151 241 445.151 241H313.664Z" fill="#FFCC65"/>
<path d="M394.285 186.301C388.376 186.136 379.877 183.821 375.783 182.604C375.195 183.339 374.655 184.037 374.173 184.673C373.636 185.384 373.065 186.075 372.471 186.752C387.862 188.75 394.285 186.301 394.285 186.301Z" fill="#FFAB41"/>
<path d="M347.275 232.86C357.193 224.145 367.912 211.622 368.313 209.218C368.714 206.813 365.909 206.112 363.103 208.617C360.299 211.121 346.373 222.542 341.465 219.136C340.377 218.381 339.309 217.37 338.305 216.254C337.692 216.782 337.225 217.139 336.956 217.257C335.624 217.844 335.301 214.837 332.843 211.967C333.301 215.781 333.588 221.22 332.448 225.948C331.205 231.108 328.689 237.154 326.958 241H340.914C341.231 239.394 342.749 236.838 347.275 232.86Z" fill="#FFAB40"/>
<path d="M377.379 218.985C370.757 227.327 368.322 235.517 367.447 241H445.151C445.151 241 440.543 230.556 429.423 203.307C423.943 189.878 419.533 181.468 415.097 176.229C402.755 189.757 384.682 209.786 377.379 218.985Z" fill="#FFAC40"/>
<path d="M435.233 235.265C434.823 230.698 435.103 223.743 435.474 218.041C433.72 213.801 431.712 208.916 429.423 203.307C427.451 198.476 425.62 194.304 423.875 190.686C421.742 195.551 419.801 203.828 423.412 218.735C425.891 228.963 430.536 236.164 434.9 241H437.006C436.098 239.318 435.426 237.402 435.233 235.265Z" fill="#FFCB65"/>
<path d="M389.1 195.243C377.98 195.318 380.61 194.266 377.304 196.67C373.998 199.074 365.508 205.311 366.059 209.118C366.61 212.924 371.719 223.694 374.474 223.994C377.229 224.295 382.388 222.492 384.793 221.74C387.197 220.989 388.249 221.44 389.1 222.241C389.952 223.043 393.158 235.365 397.616 237.018C402.074 238.671 415.247 235.165 421.409 236.066C427.57 236.968 429.724 235.665 431.326 233.311C432.929 230.957 435.839 226.968 436.263 219.946C436.263 219.946 422.461 185.174 421.108 182.72C419.756 180.266 416.901 173.804 411.541 175.206C406.181 176.609 404.027 181.067 402.074 181.267C400.12 181.468 393.609 181.217 392.957 182.269C392.306 183.321 390.603 193.139 390.603 194.09C390.603 195.042 389.1 195.243 389.1 195.243Z" fill="#00A200"/>
<path d="M430.123 234.719C430.577 234.31 430.967 233.839 431.326 233.311C432.374 231.772 433.977 229.528 435.082 226.201C435.158 223.424 435.309 220.569 435.479 217.974C433.428 212.819 427.81 198.728 424.206 189.959C421.957 194.714 419.614 203.058 423.412 218.735C424.985 225.225 427.431 230.495 430.123 234.719Z" fill="#4AC000"/>
<path d="M437.006 241C437.006 241 434.672 238.13 434.858 234.719C435.044 231.307 434.482 212.448 442.371 204.522C450.261 196.595 477.009 182.695 483.696 181.944C490.383 181.192 514.877 185.926 518.559 188.631C522.24 191.335 526.824 195.768 528.927 204.522C531.031 213.275 531.482 241 531.482 241L437.006 241Z" fill="#FF9630"/>
<path d="M454.067 228.753C454.568 222.542 463.284 209.719 464.536 207.715C465.788 205.712 467.091 203.658 465.488 202.706C463.885 201.754 462.733 202.806 460.679 205.161C458.626 207.515 453.166 212.975 450.661 215.843C448.157 218.711 443.048 223.794 439.641 223.944C437.562 224.036 436.585 221.309 436.069 219.171C434.834 226.107 434.961 232.816 434.858 234.719C434.672 238.131 437.006 241 437.006 241H455.22C455.22 241 453.567 234.964 454.067 228.753Z" fill="#F98030"/>
<path d="M531.482 241C531.482 241 531.031 213.275 528.927 204.522C526.824 195.768 522.24 191.336 518.559 188.631C517.957 188.189 516.792 187.692 515.247 187.174C514.131 189.51 512.139 193.107 509.968 194.291C506.662 196.094 498.447 197.497 495.542 200.202C492.763 202.789 479.54 227.462 476.731 241H531.482Z" fill="#F98030"/>
<path d="M487.828 241H880.336C880.336 241 879.284 225.973 871.62 214.627C863.956 203.282 863.43 210.42 857.119 197.872C850.807 185.325 841.04 189.157 836.081 186.452C831.122 183.747 824.961 173.303 820.828 165.188C816.696 157.074 807.705 154.619 798.288 150.812C788.871 147.005 785.765 139.091 762.724 138.691C739.682 138.29 732.97 148.408 721.65 147.807C710.329 147.206 669.356 141.446 658.536 144.15C647.716 146.855 634.192 164.738 616.16 168.494C598.127 172.251 573.282 181.067 547.937 183.872C522.591 186.677 507.464 206.112 496.444 218.434C495.442 219.837 492.186 231.508 490.583 233.712C488.98 235.916 487.828 241 487.828 241Z" fill="#FFCA69"/>
<path d="M871.62 214.627C863.956 203.282 863.43 210.42 857.119 197.872C850.808 185.325 841.04 189.157 836.081 186.452C833.923 185.275 831.537 182.631 829.19 179.353C829.105 180.671 828.979 182.391 829.244 183.183C829.619 184.31 833.251 194.541 833.251 202.756C833.251 210.971 832.7 217.583 825.587 222.341C818.474 227.1 810.51 229.905 799.941 229.204C789.372 228.502 768.584 229.504 766.831 230.256C765.078 231.007 758.316 239.672 757.615 239.372C756.913 239.071 750.802 213.325 746.795 198.799C742.788 184.273 737.078 175.51 735.575 169.172C734.072 162.834 731.968 155.922 730.866 154.219C730.191 153.175 726.686 150.14 722.967 147.824C722.534 147.832 722.096 147.831 721.65 147.807C717.736 147.599 710.277 146.775 701.746 145.896C701.545 147.203 701.168 147.984 702.603 148.997C704.519 150.349 721.988 157.374 725.332 163.047C728.675 168.719 737.128 185.024 734.423 200.051C731.718 215.078 729.088 219.135 725.256 228.377C723.266 233.176 723.162 237.729 723.52 241H880.336C880.336 241 879.284 225.973 871.62 214.627Z" fill="#FFAB40"/>
<path d="M685.384 229.254C683.08 226.198 682.93 220.288 683.681 215.379C684.433 210.47 684.533 205.962 683.882 204.159C683.23 202.355 675.016 198.448 674.665 194.191C674.314 189.933 672.611 167.943 672.06 162.984C671.583 158.69 666.26 147.337 662.076 143.623C660.689 143.74 659.493 143.911 658.536 144.151C648.361 146.694 635.792 162.659 619.331 167.676C620.026 169.69 621.253 172.31 622.972 173.353C625.777 175.056 644.911 182.57 646.314 192.888C647.717 203.207 654.389 224.263 654.429 226.048C654.458 227.379 654.5 235.967 655.474 241H691.014C690.125 238.414 687.327 231.83 685.384 229.254Z" fill="#FFAB40"/>
<path d="M871.62 214.627C863.956 203.282 863.43 210.42 857.119 197.872C850.807 185.325 841.04 189.157 836.081 186.452C834.331 185.497 832.432 183.577 830.525 181.138C830.501 182.996 830.717 184.99 832.55 188.08C836.056 193.99 839.863 211.722 844.772 217.332C848.716 221.84 855.048 233.069 857.023 241H880.336C880.336 241 879.284 225.973 871.62 214.627Z" fill="#FF9630"/>
<path d="M824.068 171.214C821.576 173.411 819.076 172.006 817.826 170.733C817.57 170.469 817.36 170.212 817.22 169.995C817.205 169.972 817.189 169.956 817.174 169.933C816.032 168.722 804.596 168.784 799.712 168.341C794.751 167.891 787.841 161.129 785.062 158.799C782.282 156.47 781.156 157.301 775.823 157.596C770.489 157.899 772.065 156.773 764.852 154.591C757.639 152.417 751.7 153.466 745.543 154.894C739.759 156.237 731.591 156.913 729.371 154.817C729.223 154.677 729.107 154.529 729.013 154.366C728.827 154.04 728.618 153.761 728.385 153.52C726.777 151.835 724.262 152.084 722.026 150.834C721.7 150.655 721.444 150.453 721.249 150.236C720.931 149.886 720.776 149.49 720.776 149.087C720.776 148.652 720.954 148.202 721.281 147.782C721.917 146.967 723.128 146.245 724.728 145.88C728.385 145.034 727.204 145.43 734.487 144.684C741.055 141.952 748.982 138.45 762.725 138.691C785.76 139.087 788.866 147.006 798.284 150.81C807.701 154.615 816.692 157.076 820.823 165.189C821.809 167.115 822.896 169.164 824.068 171.214Z" fill="#4AC000"/>
<path d="M708.276 173.854C708.276 170.684 707.875 169.747 706.172 170.348C704.469 170.949 698.758 173.754 699.209 176.358C699.66 178.963 707.724 185.475 709.578 194.191C711.431 202.906 712.934 209.017 713.836 209.468C714.737 209.919 716.24 210.219 716.59 208.116C716.941 206.012 715.689 197.496 714.537 192.437C713.385 187.378 708.276 177.16 708.276 173.854Z" fill="#FFAB40"/>
<path d="M624.374 167.973C616.961 168.574 602.836 173.182 602.335 181.197C601.834 189.211 607.344 193.018 615.358 190.914C623.372 188.811 628.181 184.002 630.886 187.007C633.591 190.013 634.743 193.068 635.044 199.129C635.344 205.19 635.494 209.047 645.813 218.564C656.132 228.081 654.278 227.631 660.539 228.131C666.801 228.632 677.27 228.232 679.824 229.634C682.379 231.037 687.137 231.788 686.336 228.582C685.534 225.377 682.98 224.024 680.525 220.468C678.071 216.911 666.049 201.483 661.892 196.024C657.734 190.564 647.666 176.088 638.5 171.58C629.333 167.071 624.374 167.973 624.374 167.973Z" fill="#4AC000"/>
<path d="M543.154 241C542.688 236.136 539.897 228.393 539.146 226.198C538.169 223.343 530.13 215.98 525.246 216.356C520.619 216.711 511.345 232.906 507.825 241H543.154Z" fill="#FFAA40"/>
<path d="M871.62 214.627C863.956 203.282 863.43 210.42 857.119 197.872C855.371 194.398 853.358 192.183 851.256 190.734C851.571 192.818 851.796 195.437 851.383 197.396C850.725 200.527 845.391 205.141 839.561 206.963C839.702 207.337 839.853 207.702 839.988 207.94C840.252 208.405 840.821 209.897 841.17 210.836C846.859 209.102 865.44 205.215 876.4 224.021C875.197 220.862 873.64 217.617 871.62 214.627Z" fill="#FA8030"/>
<path d="M492.637 224.771C492.637 224.771 496.243 228.978 504.245 229.316C512.247 229.655 516.004 226.875 520.625 223.794C525.246 220.714 525.734 218.046 528.101 220.375C530.468 222.705 535.352 232.322 543.879 230.857C552.407 229.392 561.123 227.548 564.166 219.491C567.209 211.434 566.796 210.044 571.154 207.227C575.512 204.409 582.912 200.314 584.227 197.046C585.542 193.777 584.002 183.935 578.141 183.146C572.281 182.357 565.03 183.634 560.447 186.452C555.864 189.269 551.994 193.477 543.466 193.477C534.938 193.477 523.33 192.387 520.249 193.74C517.169 195.092 504.734 206.55 501.841 209.781C498.949 213.012 493.539 220.112 493.576 221.577C493.614 223.043 492.637 224.771 492.637 224.771Z" fill="#4AC000"/>
</g>
</g>
</g>
<g clip-path="url(#clip4_1_2190)">
<rect width="1194" height="431" transform="translate(0 241)" fill="white"/>
<rect y="241" width="1194" height="431" fill="#8DE4FF"/>
</g>
</g>
<g clip-path="url(#clip5_1_2190)">
<path d="M1194 217C1094.5 217 1094.5 235.044 994.993 235.044C895.49 235.044 895.49 217 795.987 217C696.484 217 696.488 235.044 596.99 235.044C497.491 235.044 497.49 217 397.99 217C298.491 217 298.492 235.044 198.994 235.044C99.4958 235.044 99.4971 217 0 217V241.1H1194V217Z" fill="#8DE4FF"/>
</g>
<defs>
<clipPath id="clip0_1_2190">
<rect width="1194" height="672" fill="white"/>
</clipPath>
<clipPath id="clip1_1_2190">
<rect width="1194" height="241" fill="white"/>
</clipPath>
<clipPath id="clip2_1_2190">
<rect width="1264" height="241" fill="white" transform="translate(-35)"/>
</clipPath>
<clipPath id="clip3_1_2190">
<rect width="602.5" height="200.833" fill="white" transform="translate(295.75 40.1667)"/>
</clipPath>
<clipPath id="clip4_1_2190">
<rect width="1194" height="431" fill="white" transform="translate(0 241)"/>
</clipPath>
<clipPath id="clip5_1_2190">
<rect width="1194" height="48.2" fill="white" transform="translate(0 193)"/>
</clipPath>
</defs>
</svg>
