<svg width="350" height="175" viewBox="0 0 350 175" fill="none" xmlns="http://www.w3.org/2000/svg">
<g clip-path="url(#clip0_1_2204)">
<path d="M1.45505 62.2206V117.823C1.45505 138.871 79.1537 155.935 175 155.935C270.847 155.935 348.545 138.871 348.545 117.823V62.2206H1.45505Z" fill="#EAEAEA"/>
<path d="M175 155.935C104.545 155.935 43.8973 146.714 16.7081 133.468V140.238C16.7081 159.437 87.5779 175 175 175C262.423 175 333.292 159.437 333.292 140.238V133.468C306.103 146.714 245.456 155.935 175 155.935Z" fill="#D3D3D3"/>
<path d="M175 100.333C270.846 100.333 348.545 83.2694 348.545 62.2207C348.545 41.1721 270.846 24.1088 175 24.1088C79.1538 24.1088 1.45505 41.1721 1.45505 62.2207C1.45505 83.2694 79.1538 100.333 175 100.333Z" fill="white"/>
<path d="M175 37.6665C253.702 37.6665 319.52 49.5981 335.981 65.5598C336.623 64.4631 336.964 63.3494 336.964 62.2206C336.964 45.4804 264.45 31.9097 175 31.9097C85.5502 31.9097 13.036 45.4804 13.036 62.2206C13.036 63.3494 13.3766 64.4631 14.0189 65.5598C30.4794 49.598 96.298 37.6665 175 37.6665Z" fill="#F4F4F4"/>
</g>
<defs>
<clipPath id="clip0_1_2204">
<rect width="350" height="175" fill="white"/>
</clipPath>
</defs>
</svg>
