<svg width="240" height="180" viewBox="0 0 240 180" fill="none" xmlns="http://www.w3.org/2000/svg">
<path opacity="0.2" d="M20.2935 137.92H42.2837C40.646 136.656 39.5864 134.678 39.5864 132.449C39.5864 128.629 42.6826 125.533 46.5024 125.533H224.715C228.535 125.533 231.631 128.629 231.631 132.449C231.631 136.268 228.535 139.365 224.715 139.365H145.74C147.378 140.629 148.437 142.607 148.437 144.836C148.437 148.655 145.341 151.751 141.522 151.751H20.2936C16.4743 151.751 13.3781 148.655 13.3781 144.836C13.3781 141.017 16.4742 137.92 20.2935 137.92Z" fill="white"/>
<path opacity="0.2" d="M15.6445 101.618H136.872C140.692 101.618 143.788 104.714 143.788 108.534C143.788 112.353 140.692 115.449 136.872 115.449H15.6445C11.8251 115.449 8.72896 112.353 8.72896 108.534C8.72896 104.714 11.8251 101.618 15.6445 101.618Z" fill="white"/>
<path d="M218.111 100.879L31.456 35.8582L20.903 94.0338L218.111 100.879Z" fill="url(#paint0_linear_1_2221)"/>
<path d="M141.89 128.843L145.812 93.4193C145.832 93.2389 145.862 93.0619 145.885 92.8823L218.111 100.879L215.016 128.843H141.89Z" fill="#AE5922"/>
<path d="M50.483 128.843L55.5712 82.8838L142.724 92.5324L138.705 128.843H50.483Z" fill="#D4772A"/>
<path d="M53.0294 111.547L136.412 120.778L135.714 127.078L52.332 117.846L53.0294 111.547Z" fill="#CE6F28"/>
<path d="M132.749 128.843L134.475 113.251C128.732 110.999 124.636 105.738 123.889 99.5878L75.5542 94.2367C73.4803 100.074 68.332 104.312 62.2354 105.253L59.6239 128.843H50.4834L55.5713 82.8839L145.871 92.8809L141.89 128.843L132.749 128.843Z" fill="#FFBE02"/>
<path d="M130.445 103.281L133.567 100.781L136.067 103.903L132.945 106.403L130.445 103.281Z" fill="#EF9700"/>
<path d="M62.7272 95.784L65.8491 93.2844L68.3487 96.4064L65.2268 98.9059L62.7272 95.784Z" fill="#EF9700"/>
<path d="M58.9758 63.2093C63.599 43.6785 83.1794 31.5935 102.71 36.2167L191.119 57.144L182.748 92.5075L58.9758 63.2093Z" fill="#D4772A"/>
<path d="M190.648 57.0359C210.455 61.4538 222.772 81.1915 218.111 100.878L147.397 84.1397C152.22 65.0061 171.332 52.7275 190.648 57.0359Z" fill="#AE5922"/>
<path d="M74.5066 45.9871L156.142 65.3112L154.683 71.4789L73.0466 52.1548L74.5066 45.9871Z" fill="#CE6F28"/>
<path d="M160.91 66.4397L210.201 78.1074L208.741 84.275L159.45 72.6073L160.91 66.4397Z" fill="#A8501E"/>
<path d="M111.551 38.3094L102.71 36.2167C83.1794 31.5935 63.5989 43.6785 58.9757 63.2093L67.8166 65.302C72.4398 45.7712 92.0203 33.6862 111.551 38.3094Z" fill="#FFBE02"/>
<path d="M191.119 57.144L182.278 55.0513C162.747 50.4282 143.167 62.5131 138.544 82.0439L147.384 84.1366C152.008 64.6058 171.588 52.5209 191.119 57.144Z" fill="#FFBE02"/>
<path d="M191.119 57.144C171.588 52.5209 152.008 64.6058 147.384 84.1366L156.225 86.2293C159.693 71.5812 174.378 62.5175 189.026 65.9849C203.674 69.4523 212.738 84.1377 209.271 98.7857L218.111 100.878C222.735 81.3476 210.65 61.7672 191.119 57.144Z" fill="#EF9701"/>
<g filter="url(#filter0_d_1_2221)">
<path d="M121.509 77.4647C121.468 77.839 121.657 78.2016 121.992 78.3754L127.168 81.0479C128.99 81.9887 130.312 83.6755 130.799 85.6736L132.228 91.5648C132.238 91.6088 132.266 91.6424 132.283 91.683C132.298 91.7165 132.311 91.7492 132.329 91.7802C132.358 91.8275 132.386 91.8703 132.424 91.9102C132.48 91.9738 132.545 92.0307 132.619 92.0738C132.666 92.0977 132.713 92.1215 132.761 92.1331C132.809 92.1508 132.857 92.1624 132.906 92.1678L133.068 92.167C133.118 92.1663 133.169 92.1533 133.22 92.1403C133.305 92.1141 133.381 92.0714 133.452 92.0206C133.495 91.9908 133.531 91.9559 133.568 91.9175C133.589 91.895 133.607 91.8707 133.626 91.8457C133.656 91.8061 133.696 91.7755 133.719 91.7297L136.401 86.2937C137.307 84.4498 138.967 83.0932 140.95 82.5736L146.585 81.0981C146.95 81.0018 147.221 80.6901 147.262 80.3158C147.306 79.9231 147.087 79.5448 146.725 79.3868L141.952 77.2807C139.885 76.3687 138.381 74.5251 137.892 72.3218L136.538 66.1531C136.521 66.0829 136.497 66.0181 136.466 65.9588C136.446 65.9193 136.425 65.8797 136.392 65.8449C136.327 65.757 136.242 65.6854 136.136 65.6303C136.107 65.6147 136.071 65.5983 136.035 65.5881C135.982 65.5636 135.921 65.5507 135.86 65.5439C135.799 65.5371 135.737 65.5365 135.679 65.5487C135.642 65.5508 135.604 65.559 135.572 65.5678C135.469 65.5937 135.377 65.6456 135.295 65.705C135.261 65.7323 135.233 65.7602 135.205 65.7882C135.149 65.8502 135.098 65.913 135.065 65.99L132.394 71.7131C131.441 73.7567 129.564 75.226 127.354 75.6645L122.236 76.6756C121.842 76.7501 121.552 77.0719 121.509 77.4647Z" fill="white"/>
</g>
<g filter="url(#filter1_d_1_2221)">
<path d="M61.6366 41.439C61.6122 41.659 61.7237 41.8723 61.9206 41.9744L64.9641 43.5457C66.035 44.0988 66.8126 45.0906 67.0989 46.2654L67.9388 49.7291C67.9446 49.755 67.9616 49.7748 67.9716 49.7986C67.9799 49.8182 67.9878 49.8375 67.9986 49.8557C68.0153 49.8835 68.032 49.9087 68.0539 49.9321C68.0874 49.9695 68.125 50.0029 68.1685 50.0283C68.1962 50.0424 68.2239 50.0563 68.2524 50.0632C68.2804 50.0736 68.3089 50.0804 68.3377 50.0836L68.4327 50.0832C68.462 50.0828 68.492 50.0752 68.5221 50.0675C68.572 50.0521 68.6169 50.027 68.6585 49.9971C68.684 49.9796 68.7052 49.9591 68.727 49.9365C68.7394 49.9233 68.75 49.909 68.7608 49.8943C68.7787 49.871 68.8019 49.853 68.8154 49.8261L70.3926 46.63C70.9253 45.5459 71.9011 44.7483 73.067 44.4428L76.3804 43.5753C76.5949 43.5187 76.7539 43.3354 76.7783 43.1154C76.8039 42.8845 76.6751 42.6621 76.4626 42.5692L73.6562 41.3309C72.441 40.7947 71.5567 39.7107 71.2692 38.4153L70.4729 34.7884C70.4629 34.7471 70.4488 34.709 70.4308 34.6742C70.4188 34.651 70.4067 34.6277 70.3871 34.6072C70.349 34.5556 70.2989 34.5135 70.2368 34.481C70.2196 34.4718 70.1987 34.4622 70.1775 34.4562C70.1462 34.4418 70.1105 34.4342 70.0745 34.4302C70.0385 34.4262 70.0019 34.4258 69.9683 34.433C69.9463 34.4342 69.9239 34.439 69.905 34.4443C69.8449 34.4596 69.7904 34.49 69.7427 34.5249C69.7227 34.5409 69.7062 34.5573 69.6898 34.5738C69.6565 34.6102 69.6269 34.6471 69.6073 34.6924L68.0369 38.0573C67.4766 39.2588 66.373 40.1227 65.0736 40.3806L62.0643 40.9751C61.8331 41.0189 61.6622 41.208 61.6366 41.439Z" fill="white"/>
</g>
<g filter="url(#filter2_d_1_2221)">
<path d="M142.151 47.2152C142.315 45.7344 141.248 44.4011 139.767 44.2372C138.286 44.0733 136.953 45.1408 136.789 46.6216C136.625 48.1024 137.693 49.4357 139.173 49.5996C140.654 49.7635 141.987 48.696 142.151 47.2152Z" fill="white"/>
</g>
<path d="M153.086 100.253C152.24 100.253 151.553 99.5668 151.553 98.7201C151.553 97.8734 152.24 97.187 153.086 97.187C153.933 97.187 154.62 97.8734 154.62 98.7201C154.62 99.5668 153.933 100.253 153.086 100.253Z" fill="white"/>
<g filter="url(#filter3_d_1_2221)">
<path d="M52.044 69.7401C52.0943 69.2854 51.7665 68.8759 51.3117 68.8255C50.8569 68.7751 50.4474 69.103 50.3971 69.5577C50.3468 70.0124 50.6746 70.422 51.1294 70.4723C51.5842 70.5226 51.9936 70.1949 52.044 69.7401Z" fill="white"/>
</g>
<g filter="url(#filter4_d_1_2221)">
<path d="M129.85 56.9118C129.957 55.9416 129.258 55.0681 128.288 54.9607C127.317 54.8533 126.444 55.5527 126.336 56.5229C126.229 57.4931 126.928 58.3666 127.899 58.474C128.869 58.5814 129.742 57.882 129.85 56.9118Z" fill="white"/>
</g>
<g filter="url(#filter5_d_1_2221)">
<path d="M133.502 41.7547C132.525 41.7547 131.734 40.9634 131.734 39.9873C131.734 39.0111 132.525 38.2198 133.502 38.2198C134.478 38.2198 135.269 39.0111 135.269 39.9873C135.269 40.9634 134.478 41.7547 133.502 41.7547Z" fill="white"/>
</g>
<path d="M151.34 92.4427C150.785 92.4427 150.335 91.993 150.335 91.4382C150.335 90.8834 150.785 90.4337 151.34 90.4337C151.894 90.4337 152.344 90.8834 152.344 91.4382C152.344 91.993 151.894 92.4427 151.34 92.4427Z" fill="white"/>
<path d="M151.659 128.843L148.776 128.524L149.474 122.224L209.259 128.843H151.659Z" fill="#A8501E"/>
<path d="M205.875 128.843L208.082 108.909L153.901 102.91L151.031 128.843H141.89L145.871 92.8808L218.111 100.878L215.015 128.843H205.875Z" fill="#EF9701"/>
<path d="M94.9336 83.2651L111.422 85.0905C113.783 85.3519 115.485 87.4779 115.224 89.8391L114.164 99.4061C113.318 107.051 106.435 112.562 98.79 111.716L91.8687 110.949L94.9336 83.2651Z" fill="#FAB116"/>
<path d="M80.6182 86.0079L79.5936 95.2632C78.7344 103.024 84.3615 110.265 92.1368 110.977C99.6739 111.666 106.407 106.195 107.243 98.6398L108.302 89.0728C108.564 86.7116 106.862 84.5856 104.5 84.3242L85.3668 82.2059C83.0056 81.9445 80.8796 83.6468 80.6182 86.0079Z" fill="#FFD51F"/>
<path d="M88.5317 98.9035C88.2298 101.631 90.3548 104.067 93.1812 104.058C95.2651 104.05 97.138 102.588 97.6441 100.567C98.1773 98.4374 97.1835 96.3841 95.4593 95.391L96.0129 90.3905L92.3217 89.9818L91.7681 94.9823C90.0602 95.5144 88.7412 97.0119 88.5317 98.9035Z" fill="#F39203"/>
<g filter="url(#filter6_d_1_2221)">
<path d="M59.285 81.975C59.2606 82.1951 59.3722 82.4083 59.5691 82.5104L62.6125 84.0818C63.6834 84.6349 64.4609 85.6266 64.7472 86.8014L65.5872 90.2651C65.593 90.291 65.6099 90.3109 65.6199 90.3347C65.6282 90.3544 65.6362 90.3735 65.647 90.3918C65.6637 90.4196 65.6803 90.4447 65.7023 90.4682C65.7358 90.5056 65.7735 90.539 65.817 90.5644C65.8447 90.5784 65.8723 90.5924 65.9008 90.5992C65.9289 90.6096 65.9573 90.6164 65.9862 90.6196L66.0812 90.6193C66.1104 90.6189 66.1405 90.6112 66.1705 90.6035C66.2204 90.5881 66.2653 90.563 66.3068 90.5331C66.3323 90.5156 66.3535 90.4951 66.3753 90.4726C66.3877 90.4593 66.3983 90.445 66.4091 90.4303C66.427 90.407 66.4503 90.389 66.4638 90.3621L68.0411 87.166C68.5738 86.0819 69.5494 85.2843 70.7153 84.9787L74.0288 84.1112C74.2432 84.0546 74.4023 83.8714 74.4266 83.6513C74.4522 83.4204 74.3234 83.1981 74.1109 83.1052L71.3045 81.8668C70.0893 81.3306 69.2051 80.2468 68.9176 78.9514L68.1213 75.3245C68.1113 75.2832 68.0971 75.245 68.0791 75.2102C68.0671 75.187 68.0551 75.1638 68.0355 75.1434C67.9974 75.0917 67.9473 75.0495 67.8851 75.0171C67.8679 75.0079 67.847 74.9984 67.8258 74.9924C67.7945 74.978 67.7587 74.9703 67.7227 74.9663C67.6867 74.9623 67.6501 74.9619 67.6165 74.9691C67.5944 74.9703 67.572 74.9752 67.5532 74.9804C67.4931 74.9957 67.4387 75.0261 67.391 75.0611C67.3709 75.0771 67.3545 75.0936 67.3381 75.11C67.3048 75.1465 67.2751 75.1834 67.2555 75.2287L65.6851 78.5936C65.1249 79.7952 64.0213 80.659 62.7218 80.9169L59.7126 81.5113C59.4812 81.5551 59.3106 81.7441 59.285 81.975Z" fill="white"/>
</g>
<defs>
<filter id="filter0_d_1_2221" x="117.503" y="61.5391" width="33.7643" height="34.6287" filterUnits="userSpaceOnUse" color-interpolation-filters="sRGB">
<feFlood flood-opacity="0" result="BackgroundImageFix"/>
<feColorMatrix in="SourceAlpha" type="matrix" values="0 0 0 0 0 0 0 0 0 0 0 0 0 0 0 0 0 0 127 0" result="hardAlpha"/>
<feOffset/>
<feGaussianBlur stdDeviation="2"/>
<feComposite in2="hardAlpha" operator="out"/>
<feColorMatrix type="matrix" values="0 0 0 0 1 0 0 0 0 1 0 0 0 0 1 0 0 0 0.8 0"/>
<feBlend mode="normal" in2="BackgroundImageFix" result="effect1_dropShadow_1_2221"/>
<feBlend mode="normal" in="SourceGraphic" in2="effect1_dropShadow_1_2221" result="shape"/>
</filter>
<filter id="filter1_d_1_2221" x="57.6332" y="30.4274" width="23.1483" height="23.6562" filterUnits="userSpaceOnUse" color-interpolation-filters="sRGB">
<feFlood flood-opacity="0" result="BackgroundImageFix"/>
<feColorMatrix in="SourceAlpha" type="matrix" values="0 0 0 0 0 0 0 0 0 0 0 0 0 0 0 0 0 0 127 0" result="hardAlpha"/>
<feOffset/>
<feGaussianBlur stdDeviation="2"/>
<feComposite in2="hardAlpha" operator="out"/>
<feColorMatrix type="matrix" values="0 0 0 0 1 0 0 0 0 1 0 0 0 0 1 0 0 0 0.8 0"/>
<feBlend mode="normal" in2="BackgroundImageFix" result="effect1_dropShadow_1_2221"/>
<feBlend mode="normal" in="SourceGraphic" in2="effect1_dropShadow_1_2221" result="shape"/>
</filter>
<filter id="filter2_d_1_2221" x="132.772" y="40.2206" width="13.3955" height="13.3956" filterUnits="userSpaceOnUse" color-interpolation-filters="sRGB">
<feFlood flood-opacity="0" result="BackgroundImageFix"/>
<feColorMatrix in="SourceAlpha" type="matrix" values="0 0 0 0 0 0 0 0 0 0 0 0 0 0 0 0 0 0 127 0" result="hardAlpha"/>
<feOffset/>
<feGaussianBlur stdDeviation="2"/>
<feComposite in2="hardAlpha" operator="out"/>
<feColorMatrix type="matrix" values="0 0 0 0 1 0 0 0 0 1 0 0 0 0 1 0 0 0 0.8 0"/>
<feBlend mode="normal" in2="BackgroundImageFix" result="effect1_dropShadow_1_2221"/>
<feBlend mode="normal" in="SourceGraphic" in2="effect1_dropShadow_1_2221" result="shape"/>
</filter>
<filter id="filter3_d_1_2221" x="46.392" y="64.8204" width="9.6571" height="9.65698" filterUnits="userSpaceOnUse" color-interpolation-filters="sRGB">
<feFlood flood-opacity="0" result="BackgroundImageFix"/>
<feColorMatrix in="SourceAlpha" type="matrix" values="0 0 0 0 0 0 0 0 0 0 0 0 0 0 0 0 0 0 127 0" result="hardAlpha"/>
<feOffset/>
<feGaussianBlur stdDeviation="2"/>
<feComposite in2="hardAlpha" operator="out"/>
<feColorMatrix type="matrix" values="0 0 0 0 1 0 0 0 0 1 0 0 0 0 1 0 0 0 0.8 0"/>
<feBlend mode="normal" in2="BackgroundImageFix" result="effect1_dropShadow_1_2221"/>
<feBlend mode="normal" in="SourceGraphic" in2="effect1_dropShadow_1_2221" result="shape"/>
</filter>
<filter id="filter4_d_1_2221" x="122.326" y="50.9498" width="11.535" height="11.5351" filterUnits="userSpaceOnUse" color-interpolation-filters="sRGB">
<feFlood flood-opacity="0" result="BackgroundImageFix"/>
<feColorMatrix in="SourceAlpha" type="matrix" values="0 0 0 0 0 0 0 0 0 0 0 0 0 0 0 0 0 0 127 0" result="hardAlpha"/>
<feOffset/>
<feGaussianBlur stdDeviation="2"/>
<feComposite in2="hardAlpha" operator="out"/>
<feColorMatrix type="matrix" values="0 0 0 0 1 0 0 0 0 1 0 0 0 0 1 0 0 0 0.8 0"/>
<feBlend mode="normal" in2="BackgroundImageFix" result="effect1_dropShadow_1_2221"/>
<feBlend mode="normal" in="SourceGraphic" in2="effect1_dropShadow_1_2221" result="shape"/>
</filter>
<filter id="filter5_d_1_2221" x="127.734" y="34.2198" width="11.5348" height="11.5348" filterUnits="userSpaceOnUse" color-interpolation-filters="sRGB">
<feFlood flood-opacity="0" result="BackgroundImageFix"/>
<feColorMatrix in="SourceAlpha" type="matrix" values="0 0 0 0 0 0 0 0 0 0 0 0 0 0 0 0 0 0 127 0" result="hardAlpha"/>
<feOffset/>
<feGaussianBlur stdDeviation="2"/>
<feComposite in2="hardAlpha" operator="out"/>
<feColorMatrix type="matrix" values="0 0 0 0 1 0 0 0 0 1 0 0 0 0 1 0 0 0 0.8 0"/>
<feBlend mode="normal" in2="BackgroundImageFix" result="effect1_dropShadow_1_2221"/>
<feBlend mode="normal" in="SourceGraphic" in2="effect1_dropShadow_1_2221" result="shape"/>
</filter>
<filter id="filter6_d_1_2221" x="55.2816" y="70.9635" width="23.1483" height="23.6561" filterUnits="userSpaceOnUse" color-interpolation-filters="sRGB">
<feFlood flood-opacity="0" result="BackgroundImageFix"/>
<feColorMatrix in="SourceAlpha" type="matrix" values="0 0 0 0 0 0 0 0 0 0 0 0 0 0 0 0 0 0 127 0" result="hardAlpha"/>
<feOffset/>
<feGaussianBlur stdDeviation="2"/>
<feComposite in2="hardAlpha" operator="out"/>
<feColorMatrix type="matrix" values="0 0 0 0 1 0 0 0 0 1 0 0 0 0 1 0 0 0 0.8 0"/>
<feBlend mode="normal" in2="BackgroundImageFix" result="effect1_dropShadow_1_2221"/>
<feBlend mode="normal" in="SourceGraphic" in2="effect1_dropShadow_1_2221" result="shape"/>
</filter>
<linearGradient id="paint0_linear_1_2221" x1="169" y1="92.0001" x2="24.1482" y2="64.7213" gradientUnits="userSpaceOnUse">
<stop stop-color="white"/>
<stop offset="1" stop-color="white" stop-opacity="0"/>
</linearGradient>
</defs>
</svg>
