<svg width="18" height="24" viewBox="0 0 18 24" fill="none" xmlns="http://www.w3.org/2000/svg">
<path d="M3 2.25C2.57812 2.25 2.25 2.625 2.25 3V21C2.25 21.4219 2.57812 21.75 3 21.75H15C15.375 21.75 15.75 21.4219 15.75 21V3C15.75 2.625 15.375 2.25 15 2.25H3ZM0 3C0 1.35938 1.3125 0 3 0H15C16.6406 0 18 1.35938 18 3V21C18 22.6875 16.6406 24 15 24H3C1.3125 24 0 22.6875 0 21V3ZM5.625 6H12.375C12.9844 6 13.5 6.51562 13.5 7.125C13.5 7.78125 12.9844 8.25 12.375 8.25H5.625C4.96875 8.25 4.5 7.78125 4.5 7.125C4.5 6.51562 4.96875 6 5.625 6ZM5.625 10.5H12.375C12.9844 10.5 13.5 11.0156 13.5 11.625C13.5 12.2812 12.9844 12.75 12.375 12.75H5.625C4.96875 12.75 4.5 12.2812 4.5 11.625C4.5 11.0156 4.96875 10.5 5.625 10.5ZM5.625 15H7.875C8.48438 15 9 15.5156 9 16.125C9 16.7812 8.48438 17.25 7.875 17.25H5.625C4.96875 17.25 4.5 16.7812 4.5 16.125C4.5 15.5156 4.96875 15 5.625 15Z" fill="#FF6597"/>
</svg>
