<svg width="72" height="56" viewBox="0 0 72 56" fill="none" xmlns="http://www.w3.org/2000/svg">
<path d="M31.125 55C27.875 53.75 22.125 52 18 52C13.125 52 6.875 53.625 3 54.875C1.5 55.375 0 54.25 0 52.875V6.5C0 5 0.75 3.625 2.25 3.125C5.75 1.75 11.625 0 18 0C25.25 0 30.875 2.5 33.375 4.5C33.75 4.875 34 5.375 34 5.875V53C34 54.5 32.5 55.5 31.125 55ZM40.75 55C39.375 55.5 38 54.5 38 53V5.875C38 5.375 38.125 4.875 38.625 4.5C41 2.5 46.625 0 54 0C60.25 0 66.125 1.75 69.625 3.125C71.125 3.625 72 5 72 6.5V52.875C72 54.25 70.375 55.375 68.875 54.875C65 53.625 58.75 52 54 52C49.75 52 44.125 53.75 40.75 55Z" fill="#969AFF"/>
</svg>
