<svg width="30" height="22" viewBox="0 0 30 22" fill="none" xmlns="http://www.w3.org/2000/svg">
<path d="M3.23438 0.6875L5.48438 2.1875C6 2.5625 6.14062 3.26562 5.8125 3.78125C5.4375 4.29688 4.73438 4.4375 4.21875 4.0625L1.96875 2.5625C1.45312 2.23438 1.3125 1.53125 1.6875 1.01562C2.01562 0.5 2.71875 0.359375 3.23438 0.6875ZM27.9844 2.5625L25.7344 4.0625C25.2188 4.4375 24.5156 4.29688 24.1875 3.78125C23.8125 3.26562 23.9531 2.5625 24.4688 2.1875L26.7188 0.6875C27.2344 0.359375 27.9375 0.5 28.3125 1.01562C28.6406 1.53125 28.5 2.23438 27.9844 2.5625ZM1.125 8H3.375C3.98438 8 4.5 8.51562 4.5 9.125C4.5 9.78125 3.98438 10.25 3.375 10.25H1.125C0.46875 10.25 0 9.78125 0 9.125C0 8.51562 0.46875 8 1.125 8ZM26.625 8H28.875C29.4844 8 30 8.51562 30 9.125C30 9.78125 29.4844 10.25 28.875 10.25H26.625C25.9688 10.25 25.5 9.78125 25.5 9.125C25.5 8.51562 25.9688 8 26.625 8ZM21 8.75C21 5.46875 18.2812 2.75 15 2.75C11.6719 2.75 9 5.46875 9 8.75V13.25H6.75V8.75C6.75 4.20312 10.4062 0.5 15 0.5C19.5469 0.5 23.25 4.20312 23.25 8.75V13.25H21V8.75ZM6.75 19.25H23.25V17H6.75V19.25ZM4.5 17C4.5 15.7812 5.48438 14.75 6.75 14.75H23.25C24.4688 14.75 25.5 15.7812 25.5 17V19.25C25.5 20.5156 24.4688 21.5 23.25 21.5H6.75C5.48438 21.5 4.5 20.5156 4.5 19.25V17ZM15 5.75C13.3125 5.75 12 7.10938 12 8.75C12 9.17188 11.625 9.5 11.25 9.5C10.8281 9.5 10.5 9.17188 10.5 8.75C10.5 6.26562 12.5156 4.25 15 4.25C15.375 4.25 15.75 4.625 15.75 5C15.75 5.42188 15.375 5.75 15 5.75Z" fill="#0077CB"/>
</svg>
