<svg width="65" height="66" viewBox="0 0 65 66" fill="none" xmlns="http://www.w3.org/2000/svg">
<path d="M46 3.375C48.75 0.625 53.125 0.625 55.875 3.375L61.625 9.125C64.375 11.875 64.375 16.25 61.625 19L54.625 26L39 10.375L46 3.375ZM36 12.875L52.125 29L51.75 30.25L46.375 48.25C45.625 50.75 43.75 52.625 41.25 53.5L8.25 64.625C6.75 65.125 5.25 64.75 4.125 63.625L23.375 44.5C24.125 44.875 25 45 26 45C29.25 45 32 42.375 32 39C32 35.75 29.25 33 26 33C22.625 33 20 35.75 20 39C20 40 20.125 40.875 20.5 41.625L1.375 60.875C0.25 59.75 0 58.25 0.375 56.75L11.5 23.75C12.375 21.25 14.25 19.375 16.75 18.625L34.75 13.25L36 12.875Z" fill="#98DED4"/>
</svg>
