<svg width="22" height="22" viewBox="0 0 22 22" fill="none" xmlns="http://www.w3.org/2000/svg">
<g clip-path="url(#clip0_1_2257)">
<g clip-path="url(#clip1_1_2257)">
<path d="M21.4657 8.24703C21.0679 7.02277 20.0361 5.99 18.4818 5.26042C17.8718 4.9741 16.9734 4.64944 16.1707 4.53017C15.8118 3.80908 15.2324 3.06127 14.7734 2.56982C13.5962 1.30945 12.2914 0.643265 11 0.643265C9.70857 0.643265 8.40376 1.30945 7.22663 2.56982C6.76764 3.06127 6.18823 3.80905 5.82929 4.53014C5.02675 4.64938 4.12833 4.97402 3.51834 5.26034C1.96398 5.98994 0.932107 7.02272 0.534313 8.24704C0.135237 9.47526 0.365615 10.9221 1.20053 12.4311C1.52614 13.0195 2.05839 13.8018 2.63336 14.366C2.49982 15.1605 2.52904 16.1062 2.61152 16.7736C2.82301 18.4852 3.48705 19.7911 4.53183 20.5502C5.26838 21.0853 6.18871 21.3567 7.26722 21.3567C8.60193 21.3567 10.0659 20.9326 11 20.4441C11.9341 20.9326 13.398 21.3567 14.7328 21.3567C15.8113 21.3567 16.7316 21.0853 17.4682 20.5502C18.513 19.7911 19.177 18.4852 19.3885 16.7736C19.471 16.1061 19.5002 15.1605 19.3666 14.366C19.9416 13.8018 20.4739 13.0195 20.7995 12.4311C21.6344 10.9221 21.8648 9.47526 21.4657 8.24703Z" fill="#012E53"/>
<path d="M19.1716 8.99238C18.7365 7.65336 16.2036 6.88813 15.5784 6.89518C15.238 6.89902 14.8058 7.04894 14.4826 7.18474C14.3252 7.25088 14.1539 7.12641 14.1682 6.95628C14.1975 6.60696 14.2065 6.14957 14.1049 5.82462C13.9184 5.22788 12.4079 3.05537 11 3.05537C9.59208 3.05537 8.08158 5.22788 7.8951 5.82462C7.79356 6.14956 7.80257 6.60696 7.83186 6.95628C7.84613 7.12642 7.67481 7.25089 7.51741 7.18474C7.19424 7.04894 6.76202 6.89902 6.4216 6.89518C5.79643 6.88813 3.26349 7.65336 2.82841 8.99238C2.39334 10.3314 3.99275 12.4393 4.50265 12.8011C4.78031 12.9981 5.21811 13.1308 5.55939 13.2109C5.72561 13.2499 5.79105 13.4513 5.67951 13.5806C5.45049 13.846 5.17434 14.2107 5.06549 14.5333C4.8656 15.1257 4.81065 17.7711 5.94969 18.5987C7.08874 19.4262 9.58773 18.5565 10.0893 18.1833C10.3625 17.9801 10.624 17.6048 10.8057 17.305C10.8941 17.1589 11.1059 17.1589 11.1944 17.305C11.376 17.6048 11.6375 17.9801 11.9107 18.1833C12.4123 18.5565 14.9113 19.4262 16.0504 18.5987C17.1894 17.7711 17.1344 15.1257 16.9345 14.5333C16.8257 14.2107 16.5495 13.846 16.3205 13.5806C16.209 13.4513 16.2744 13.2499 16.4406 13.2109C16.7819 13.1308 17.2197 12.9981 17.4974 12.8011C18.0073 12.4393 19.6067 10.3314 19.1716 8.99238Z" fill="#FFDF37"/>
<path d="M11 13.8622C12.223 13.8622 13.2145 12.8707 13.2145 11.6477C13.2145 10.4247 12.223 9.43325 11 9.43325C9.77699 9.43325 8.78554 10.4247 8.78554 11.6477C8.78554 12.8707 9.77699 13.8622 11 13.8622Z" fill="#012E53"/>
</g>
</g>
<defs>
<clipPath id="clip0_1_2257">
<rect width="22" height="22" fill="white"/>
</clipPath>
<clipPath id="clip1_1_2257">
<rect width="21.3125" height="20.7134" fill="white" transform="translate(0.34375 0.643265)"/>
</clipPath>
</defs>
</svg>
