<svg width="41" height="33" viewBox="0 0 41 33" fill="none" xmlns="http://www.w3.org/2000/svg">
<path d="M31.1875 14.5L35.0625 12.3125L30.0625 3.625L26.1875 5.875L31.1875 14.5ZM23 6.25C22.625 5.3125 22.9375 4.25 23.8125 3.75L29.4375 0.5C30.375 0 31.625 0.3125 32.125 1.25L38.125 11.625C38.6875 12.625 38.375 13.8125 37.4375 14.375L31.8125 17.625C30.875 18.125 29.6875 17.8125 29.125 16.875L29.0625 16.8125L26.4375 18.25C26.4375 18.5 26.5 18.75 26.5 19.0625C26.5 20.3125 26 21.4375 25.25 22.3125L28.375 29.9375C28.6875 30.75 28.3125 31.625 27.5625 31.9375C26.75 32.25 25.875 31.875 25.5625 31.125L22.625 23.875C22.25 24 21.875 24 21.4375 24C21.0625 24 20.6875 24 20.3125 23.875L17.375 31.125C17.0625 31.875 16.1875 32.25 15.375 31.9375C14.625 31.625 14.25 30.75 14.5625 29.9375L17.3125 23.1875L11.8125 26.125C10.875 26.6875 9.6875 26.3125 9.125 25.375L9.0625 25.3125L6.3125 26.9375C5.625 27.3125 4.6875 27.0625 4.25 26.375L2.6875 23.5625C2.25 22.8125 2.5 21.9375 3.1875 21.5L6 19.9375L5.75 19.5C5.1875 18.5625 5.5 17.375 6.375 16.8125L23 6.25ZM27.5625 14.25L24.5 8.875L8.8125 18.8125L11.25 23.0625L16.625 20.1875C16.5 19.8125 16.5 19.4375 16.5 19C16.5 16.25 18.6875 14 21.5 14C22.875 14 24.1875 14.625 25.0625 15.5625L27.5625 14.25ZM21.5 21C22.5625 21 23.5 20.125 23.5 19C23.5 17.9375 22.5625 17 21.5 17C20.375 17 19.5 17.9375 19.5 19C19.5 20.125 20.375 21 21.5 21Z" fill="white"/>
</svg>
