<svg width="24" height="25" viewBox="0 0 24 25" fill="none" xmlns="http://www.w3.org/2000/svg">
<path d="M20.25 4.46875L19.7344 4.98438C17.0625 7.65625 13.5 9.15625 9.75 9.25V15.25V15.2969C13.5 15.3438 17.0625 16.8906 19.7344 19.5625L20.25 20.0781V4.46875ZM7.5 7H9.375C12.6562 7 15.7969 5.73438 18.1406 3.39062L19.9219 1.60938C20.8594 0.671875 22.5 1.32812 22.5 2.6875V9.4375C23.3438 9.85938 24 10.9844 24 12.25C24 13.5625 23.3438 14.6875 22.5 15.1094V21.8594C22.5 23.2188 20.8594 23.875 19.9219 22.9375L18.1406 21.1562C15.8906 18.9062 12.8906 17.5938 9.75 17.5469V22.375C9.75 23.8281 8.53125 25 7.125 25H5.625C4.17188 25 3 23.8281 3 22.375V17.5C1.3125 17.5 0 16.1875 0 14.5V10C0 8.35938 1.3125 7 3 7H7.5ZM5.25 17.5V22.375C5.25 22.6094 5.39062 22.75 5.625 22.75H7.125C7.3125 22.75 7.5 22.6094 7.5 22.375V17.5H5.25ZM3 9.25C2.57812 9.25 2.25 9.625 2.25 10V14.5C2.25 14.9219 2.57812 15.25 3 15.25H5.25H7.5V9.25H3Z" fill="#0077CB"/>
</svg>
