<svg width="41" height="32" viewBox="0 0 41 32" fill="none" xmlns="http://www.w3.org/2000/svg">
<path d="M13.6875 5.75C14.3125 2.4375 17.1875 0 20.5 0C24.375 0 27.5 3.125 27.5 7V7.1875C27.5 9.4375 26.375 11.5625 24.5625 12.9375L23.0625 14L38.6875 24.5C39.8125 25.25 40.5 26.5625 40.5 27.9375C40.5 30.1875 38.625 32 36.375 32H4.5625C2.3125 32 0.5 30.1875 0.5 27.9375C0.5 26.5625 1.125 25.25 2.3125 24.5L19.625 12.8125L22.75 10.5C23.8125 9.75 24.5 8.5 24.5 7.125V7C24.5 4.8125 22.6875 3 20.5 3C18.625 3 17 4.375 16.625 6.25L16.4375 7.3125C16.3125 8.125 15.5 8.625 14.6875 8.5C13.875 8.375 13.375 7.5625 13.5 6.75L13.6875 5.75ZM20.5 15.8125L3.9375 27C3.625 27.1875 3.5 27.5625 3.5 27.9375C3.5 28.5 4 29 4.5625 29H36.375C37 29 37.5 28.5 37.5 27.9375C37.5 27.5625 37.3125 27.1875 37 27L20.5 15.8125Z" fill="white"/>
</svg>
