<svg width="24" height="32" viewBox="0 0 24 32" fill="none" xmlns="http://www.w3.org/2000/svg">
<path d="M20 4C22.1875 4 24 5.8125 24 8V28C24 30.25 22.1875 32 20 32H4C1.75 32 0 30.25 0 28V8C0 5.8125 1.75 4 4 4H6.5H7.0625C7.5625 1.75 9.5625 0 12 0C14.375 0 16.4375 1.75 16.875 4H17.5H20ZM5 7H4C3.4375 7 3 7.5 3 8V28C3 28.5625 3.4375 29 4 29H20C20.5 29 21 28.5625 21 28V8C21 7.5 20.5 7 20 7H19V8.5C19 9.375 18.3125 10 17.5 10H12H6.5C5.625 10 5 9.375 5 8.5V7ZM10.5 5C10.5 5.875 11.125 6.5 12 6.5C12.8125 6.5 13.5 5.875 13.5 5C13.5 4.1875 12.8125 3.5 12 3.5C11.125 3.5 10.5 4.1875 10.5 5ZM8.5 17C8.5 17.875 7.8125 18.5 7 18.5C6.125 18.5 5.5 17.875 5.5 17C5.5 16.1875 6.125 15.5 7 15.5C7.8125 15.5 8.5 16.1875 8.5 17ZM11 16H17C17.5 16 18 16.5 18 17C18 17.5625 17.5 18 17 18H11C10.4375 18 10 17.5625 10 17C10 16.5 10.4375 16 11 16ZM11 22H17C17.5 22 18 22.5 18 23C18 23.5625 17.5 24 17 24H11C10.4375 24 10 23.5625 10 23C10 22.5 10.4375 22 11 22ZM7 24.5C6.125 24.5 5.5 23.875 5.5 23C5.5 22.1875 6.125 21.5 7 21.5C7.8125 21.5 8.5 22.1875 8.5 23C8.5 23.875 7.8125 24.5 7 24.5Z" fill="white"/>
</svg>
