<svg width="240" height="240" viewBox="0 0 240 240" fill="none" xmlns="http://www.w3.org/2000/svg">
<path d="M220.223 122.525H169.764L157.646 129.18H208.105L220.223 122.525Z" fill="#717171"/>
<path d="M220.223 122.525H169.764L157.646 129.18H208.105L220.223 122.525Z" stroke="black" stroke-width="4.1364" stroke-linecap="round" stroke-linejoin="round"/>
<path d="M208.105 129.18H157.646V212.192H208.105V129.18Z" fill="#515151"/>
<path d="M220.968 205.537L208.105 212.192V129.18L220.968 122.525V205.537Z" fill="#242424"/>
<path d="M220.968 205.537L208.105 212.192V129.18L220.968 122.525V205.537Z" stroke="black" stroke-width="4.1364" stroke-linecap="round" stroke-linejoin="round"/>
<path d="M208.105 129.18H157.646V212.192H208.105V129.18Z" stroke="black" stroke-width="4.1364" stroke-linecap="round" stroke-linejoin="round"/>
<path d="M193.239 157.8C194.757 155.721 195.662 153.174 195.662 150.413C195.662 143.428 189.937 137.765 182.875 137.765C175.814 137.765 170.089 143.428 170.089 150.413C170.089 153.174 170.994 155.721 172.512 157.8C167.911 161.02 164.905 166.32 164.905 172.319C164.905 182.136 172.951 190.095 182.875 190.095C192.8 190.095 200.846 182.136 200.846 172.319C200.846 166.32 197.84 161.02 193.239 157.8Z" fill="#171717"/>
<path d="M193.239 157.8C194.757 155.721 195.662 153.174 195.662 150.413C195.662 143.428 189.937 137.765 182.875 137.765C175.814 137.765 170.089 143.428 170.089 150.413C170.089 153.174 170.994 155.721 172.512 157.8C167.911 161.02 164.905 166.32 164.905 172.319C164.905 182.136 172.951 190.095 182.875 190.095C192.8 190.095 200.846 182.136 200.846 172.319C200.846 166.32 197.84 161.02 193.239 157.8V157.8Z" stroke="black" stroke-width="4.1364" stroke-linecap="round" stroke-linejoin="round"/>
<path d="M184.416 156.018C186.794 156.018 188.722 154.111 188.722 151.759C188.722 149.407 186.794 147.5 184.416 147.5C182.038 147.5 180.11 149.407 180.11 151.759C180.11 154.111 182.038 156.018 184.416 156.018Z" fill="#515151"/>
<path d="M184.416 178.76C187.758 178.76 190.468 176.08 190.468 172.773C190.468 169.467 187.758 166.787 184.416 166.787C181.074 166.787 178.364 169.467 178.364 172.773C178.364 176.08 181.074 178.76 184.416 178.76Z" fill="#515151"/>
<path d="M197.03 196.82H168.721C166.613 196.82 164.905 198.529 164.905 200.637V203.092C164.905 205.199 166.613 206.908 168.721 206.908H197.03C199.138 206.908 200.846 205.199 200.846 203.092V200.637C200.846 198.529 199.138 196.82 197.03 196.82Z" fill="#242424"/>
<path d="M211.041 115.565C211.199 115.479 211.361 115.387 211.517 115.304C215.71 113.075 218.294 107.71 217.527 102.825C216.798 98.176 213.366 94.9686 208.111 94.0258C193.246 91.3526 179.176 97.352 163.847 112.892C154.177 122.696 152.994 132.412 153.703 138.837C154.625 147.173 159.271 154.343 163.174 156.857C164.911 157.975 167.438 158.99 170.358 159.373C172.827 159.696 175.576 159.568 178.365 158.668C182 157.495 186.951 154.525 189.892 147.035C190.032 146.681 190.155 146.33 190.272 145.98C191.396 146.327 192.867 146.7 194.539 146.919C197.231 147.272 200.436 147.226 203.503 146.031C209.213 143.805 209.289 137.704 208.283 133.643C209.301 133.04 210.34 132.289 211.385 131.341C213.671 129.267 214.811 126.833 214.774 124.105C214.727 120.616 212.674 117.501 211.041 115.565Z" fill="#FEFADD"/>
<path d="M215.413 102.765C215.413 102.765 189.52 116.072 189.238 120.522C188.956 124.972 190.459 125.478 197.357 121.969C204.256 118.46 217.603 112.457 215.413 102.765H215.413Z" fill="#E5DEB0"/>
<path d="M194.688 132.623C194.688 132.623 191.824 129.847 193.585 128.487C195.346 127.128 202.828 128.172 204.465 125.86C206.102 123.548 212.989 125.299 211.411 128.217C209.834 131.136 201.704 135.666 194.688 132.623Z" fill="#E5DEB0"/>
<path d="M172.61 143.801C169.165 139.316 169.263 134.446 174.367 131.164C179.47 127.883 193.242 132.852 187.968 146.278C182.694 159.705 169.926 158.745 164.295 155.118C158.664 151.491 147.412 132.499 165.32 114.344C183.228 96.1887 196.88 94.1115 207.745 96.0612C218.611 98.0109 216.861 110.121 210.546 113.478C204.231 116.836 195.829 123.081 195.829 123.081" stroke="black" stroke-width="4.1364" stroke-linecap="round" stroke-linejoin="round"/>
<path d="M207.714 115.085C207.714 115.085 217.223 123.252 209.995 129.809C202.767 136.366 195.961 132.579 195.961 132.579" stroke="black" stroke-width="4.1364" stroke-linecap="round" stroke-linejoin="round"/>
<path d="M205.798 132.595C205.798 132.595 209.223 141.582 202.751 144.104C196.28 146.626 188.871 143.272 188.871 143.272" stroke="black" stroke-width="4.1364" stroke-linecap="round" stroke-linejoin="round"/>
<path d="M211.531 64.8156C220.753 55.5752 233.384 73.943 211.917 79.2173C209.427 79.9309 206.885 80.4044 204.34 80.8648C204.181 80.8934 204.089 80.8772 204.002 80.7258C202.408 77.967 200.832 75.1993 199.64 72.234C191.505 53.8816 212.877 52.3189 211.531 64.8155L211.531 64.8156Z" fill="#FFC0CB"/>
<ellipse opacity="0.1" cx="120" cy="218.4" rx="55.2" ry="13.2" fill="black"/>
<path d="M118.241 30.0234C146.627 29.0962 175.243 54.3617 178.873 79.5539C182.502 104.746 176.311 126.095 163.074 144.883C149.837 163.67 146.208 171.356 150.478 181.177C154.748 190.997 174.816 183.739 175.03 177.761C171.827 168.794 166.276 147.231 183.356 150.861C189.334 152.996 190.828 165.378 189.334 171.57C189.334 171.57 210.896 160.681 211.751 175.626C211.751 183.525 206.2 184.166 193.604 182.244C181.435 195.267 161.686 229.426 114.611 219.499C67.5358 209.571 42.8774 142.641 52.1643 82.1158C57.6083 57.4573 75.7553 31.4111 118.241 30.0234Z" fill="white" stroke="black" stroke-width="4.1364" stroke-linecap="round" stroke-linejoin="round"/>
<path d="M76.1049 88.862C81.6983 88.862 86.2326 86.4247 86.2326 83.418C86.2326 80.4113 81.6983 77.974 76.1049 77.974C70.5116 77.974 65.9773 80.4113 65.9773 83.418C65.9773 86.4247 70.5116 88.862 76.1049 88.862Z" fill="#FFC0CB"/>
<path d="M157.286 86.3206C162.879 86.3206 167.413 83.8832 167.413 80.8765C167.413 77.8699 162.879 75.4325 157.286 75.4325C151.692 75.4325 147.158 77.8699 147.158 80.8765C147.158 83.8832 151.692 86.3206 157.286 86.3206Z" fill="#FFC0CB"/>
<path d="M158.591 77.8459C158.591 77.8459 174.816 66.9577 185.598 67.278" stroke="black" stroke-width="2.48184" stroke-linecap="round" stroke-linejoin="round"/>
<path d="M160.939 82.2225C160.939 82.2225 181.328 81.2618 188.48 85.6385" stroke="black" stroke-width="2.48184" stroke-linecap="round" stroke-linejoin="round"/>
<path d="M44.7989 70.1602C44.7989 70.1602 64.2268 72.223 71.699 82.1332" stroke="black" stroke-width="2.48184" stroke-linecap="round" stroke-linejoin="round"/>
<path d="M41.2761 88.4138C41.9166 88.4138 55.3666 81.4753 68.6032 86.4924" stroke="black" stroke-width="2.48184" stroke-linecap="round" stroke-linejoin="round"/>
<path d="M101.081 81.7955C101.081 81.7955 102.042 86.3255 108.046 86.5423C114.051 86.7591 115.092 83.4767 115.092 83.4767C115.092 83.4767 117.573 87.7199 124.218 87.1595C130.863 86.5991 130.989 81.7955 130.989 81.7955" stroke="black" stroke-width="3.30912" stroke-linecap="round" stroke-linejoin="round"/>
<path d="M117.35 83.2261L120.455 80.2063C121.748 78.9491 120.858 76.757 119.054 76.757H112.015C110.211 76.757 109.321 78.9491 110.614 80.2063L113.719 83.2261C114.73 84.2088 116.339 84.2088 117.35 83.2261Z" fill="black"/>
<path d="M95.1105 74.1097C99.0227 74.1097 102.194 70.9383 102.194 67.0261C102.194 63.1139 99.0227 59.9425 95.1105 59.9425C91.1984 59.9425 88.0269 63.1139 88.0269 67.0261C88.0269 70.9383 91.1984 74.1097 95.1105 74.1097Z" fill="black"/>
<path d="M97.4694 67.3967C98.5157 67.3967 99.3639 66.5484 99.3639 65.5021C99.3639 64.4558 98.5157 63.6075 97.4694 63.6075C96.4231 63.6075 95.5748 64.4558 95.5748 65.5021C95.5748 66.5484 96.4231 67.3967 97.4694 67.3967Z" fill="white"/>
<path d="M135.888 74.1097C139.8 74.1097 142.971 70.9383 142.971 67.0261C142.971 63.1139 139.8 59.9425 135.888 59.9425C131.976 59.9425 128.804 63.1139 128.804 67.0261C128.804 70.9383 131.976 74.1097 135.888 74.1097Z" fill="black"/>
<path d="M138.247 67.3967C139.293 67.3967 140.141 66.5484 140.141 65.5021C140.141 64.4558 139.293 63.6075 138.247 63.6075C137.2 63.6075 136.352 64.4558 136.352 65.5021C136.352 66.5484 137.2 67.3967 138.247 67.3967Z" fill="white"/>
<path d="M87.6482 75.2614L86.2325 76.9314" stroke="black" stroke-width="1.65456" stroke-linecap="round" stroke-linejoin="round"/>
<path d="M90.5445 77.024L89.6703 78.9239" stroke="black" stroke-width="1.65456" stroke-linecap="round" stroke-linejoin="round"/>
<path d="M94.0382 77.5645L94.1481 79.653" stroke="black" stroke-width="1.65456" stroke-linecap="round" stroke-linejoin="round"/>
<path d="M136.277 77.5096L136.176 79.6967" stroke="black" stroke-width="1.65456" stroke-linecap="round" stroke-linejoin="round"/>
<path d="M139.647 77.1373L140.115 79.1758" stroke="black" stroke-width="1.65456" stroke-linecap="round" stroke-linejoin="round"/>
<path d="M142.744 75.4325L144.107 77.0194" stroke="black" stroke-width="1.65456" stroke-linecap="round" stroke-linejoin="round"/>
<path d="M146.613 141.538C144.19 142.59 131.349 145.582 127.134 139.432C122.918 133.281 129.868 126.333 146.773 119.214" fill="white"/>
<path d="M146.613 141.538C144.19 142.59 131.349 145.582 127.134 139.432C122.918 133.281 129.868 126.333 146.773 119.214" stroke="black" stroke-width="4.1364" stroke-linecap="round" stroke-linejoin="round"/>
<path d="M77.7665 141.538C80.1888 142.59 93.0302 145.582 97.2455 139.432C101.461 133.281 94.5113 126.333 77.6064 119.214" fill="white"/>
<path d="M77.7665 141.538C80.1888 142.59 93.0302 145.582 97.2455 139.432C101.461 133.281 94.5113 126.333 77.6064 119.214" stroke="black" stroke-width="4.1364" stroke-linecap="round" stroke-linejoin="round"/>
<path d="M176.497 54.5405C176.497 54.5405 181.363 38.7397 141.906 22.9391" stroke="black" stroke-width="4.1364" stroke-linecap="round" stroke-linejoin="round"/>
<path d="M146.674 28.1621C138.927 25.6888 130.058 24.2639 121.028 24.0415L116.762 23.9365C107.732 23.7142 98.8043 24.7011 90.9447 26.7901L88.8197 18.7947C97.4281 16.5066 107.161 15.4249 116.966 15.6663L121.232 15.7713C131.036 16.0126 140.704 17.572 149.19 20.2809L146.674 28.1621Z" fill="#2DA9DF"/>
<path d="M44.3782 58.4523L51.5446 59.3775L47.082 93.9455L39.9155 93.0203C34.9326 92.377 31.4093 87.8091 32.0526 82.8262L34.1841 66.3153C34.8274 61.3323 39.3953 57.809 44.3782 58.4523Z" fill="#4D4D4D" stroke="black" stroke-width="4.1364" stroke-linecap="round" stroke-linejoin="round"/>
<path d="M56.8868 54.7414L52.3055 54.15C50.2165 53.8803 48.3044 55.3551 48.0348 57.4441L43.232 94.6464C42.9623 96.7354 44.4372 98.6475 46.5262 98.9172L51.1074 99.5086C53.1964 99.7783 55.1085 98.3035 55.3782 96.2145L60.1809 59.0122C60.4506 56.9232 58.9758 55.0111 56.8868 54.7414Z" fill="#29AAE1" stroke="black" stroke-width="4.1364" stroke-linecap="round" stroke-linejoin="round"/>
<path d="M191.153 93.0202L183.987 93.9454L179.524 59.3774L186.691 58.4522C191.674 57.809 196.242 61.3323 196.885 66.3152L199.016 82.8261C199.66 87.8091 196.136 92.3769 191.153 93.0202Z" fill="#4D4D4D" stroke="black" stroke-width="4.1364" stroke-linecap="round" stroke-linejoin="round"/>
<path d="M179.962 99.5085L184.543 98.917C186.632 98.6474 188.107 96.7353 187.837 94.6463L183.034 57.444C182.765 55.355 180.853 53.8802 178.764 54.1498L174.182 54.7413C172.093 55.011 170.619 56.923 170.888 59.012L175.691 96.2143C175.961 98.3033 177.873 99.7782 179.962 99.5085Z" fill="#29AAE1" stroke="black" stroke-width="4.1364" stroke-linecap="round" stroke-linejoin="round"/>
<path d="M55.33 54.5405C55.33 54.5405 50.4639 38.7397 89.9212 22.9391" stroke="black" stroke-width="4.1364" stroke-linecap="round" stroke-linejoin="round"/>
<path d="M146.674 28.1621C138.927 25.6888 130.058 24.2639 121.028 24.0415L116.762 23.9365C107.732 23.7142 98.8043 24.7011 90.9447 26.7901L88.8197 18.7947C97.4281 16.5066 107.161 15.4249 116.966 15.6663L121.232 15.7713C131.036 16.0126 140.704 17.572 149.19 20.2809L146.674 28.1621V28.1621Z" stroke="black" stroke-width="4.1364" stroke-linecap="round" stroke-linejoin="round"/>
</svg>
