<svg width="32" height="26" viewBox="0 0 32 26" fill="none" xmlns="http://www.w3.org/2000/svg">
<path d="M30.8613 21.0953C30.5744 20.4734 30.0627 19.9764 29.424 19.6994C28.7788 19.4151 28.1159 19.1708 27.4391 18.9681L28.1953 17.9776C28.4342 17.6647 28.5929 17.3005 28.6581 16.9155L30.726 4.61775L30.9053 3.55252C31.0168 2.88261 30.8514 2.19689 30.4454 1.64578C30.0394 1.09468 29.4259 0.72319 28.7395 0.61282L28.5994 0.588973C27.9125 0.479694 27.2092 0.640823 26.644 1.03698C26.0788 1.43314 25.6978 2.03195 25.5847 2.70193L25.4788 3.33789L23.9356 12.5163C23.72 12.3216 23.4706 12.166 23.199 12.0568C23.462 11.6043 23.5905 11.0892 23.5701 10.5693C23.5496 10.0495 23.3811 9.5455 23.0833 9.11395C22.9886 8.9789 22.8794 8.85417 22.7574 8.74191C22.8358 8.65839 22.9082 8.56968 22.9741 8.47641C23.2932 8.01525 23.4637 7.47155 23.4637 6.91514C23.4637 6.35872 23.2932 5.81502 22.9741 5.35386C22.7405 5.02269 22.4267 4.75291 22.0605 4.56847C21.6944 4.38404 21.2872 4.29065 20.8752 4.29659H15.7909C14.9077 4.29659 14.1923 4.54302 13.6578 5.02635C13.6578 4.96593 13.6578 4.90552 13.6578 4.84351C13.6612 4.28623 13.4907 3.74113 13.1689 3.28065C12.9348 2.95007 12.6209 2.68084 12.2548 2.49672C11.8888 2.3126 11.4818 2.21927 11.07 2.22497H5.98903C5.08298 2.22497 4.34968 2.48412 3.81029 2.99447C3.2709 3.50483 2.97594 4.24412 2.97594 5.14559V8.14253C2.97303 8.48166 3.01967 8.81946 3.11445 9.14575C2.769 9.32815 2.47297 9.58809 2.25078 9.90412C1.93209 10.3654 1.76184 10.9091 1.76184 11.4654C1.76184 12.0217 1.93209 12.5653 2.25078 13.0267C2.44784 13.3081 2.7039 13.5454 3.00201 13.723C2.92396 13.986 2.88446 14.2585 2.88468 14.5323C2.87964 15.0947 3.05015 15.6454 3.37356 16.111C3.60874 16.4459 3.92535 16.7186 4.29506 16.9048C4.66476 17.091 5.07602 17.1848 5.49201 17.1779H8.23784V17.2542C8.23626 17.6145 8.30943 17.9715 8.45295 18.3035C6.41756 18.4073 4.42032 18.8836 2.56529 19.7074C2.22487 19.8534 1.9176 20.064 1.66135 20.327C1.4051 20.5899 1.20497 20.8999 1.0726 21.239C0.94023 21.5781 0.878259 21.9394 0.890287 22.3021C0.902316 22.6647 0.988105 23.0214 1.14267 23.3514C1.29544 23.6788 1.51287 23.9735 1.78252 24.2188C2.05216 24.4641 2.36874 24.6551 2.71413 24.781C3.05952 24.9068 3.42696 24.9649 3.7954 24.952C4.16385 24.9392 4.52607 24.8556 4.86136 24.706C6.40696 24.0223 8.09518 23.7014 9.79079 23.7687C11.4864 23.8361 13.1423 24.2899 14.6258 25.0939C15.0447 25.3237 15.5173 25.4444 15.9979 25.4444C16.4785 25.4444 16.951 25.3237 17.37 25.0939C18.8481 24.2932 20.4975 23.8402 22.1867 23.7709C23.8759 23.7016 25.5584 24.018 27.1002 24.6948C27.6797 24.9519 28.3304 25.0134 28.9498 24.8697C29.3513 24.7768 29.727 24.5988 30.0501 24.3482C30.3731 24.0976 30.6356 23.7806 30.8189 23.4198C31.0021 23.059 31.1017 22.6633 31.1104 22.2607C31.1191 21.8581 31.0369 21.4586 30.8694 21.0906L30.8613 21.0953Z" fill="black"/>
<path d="M29.3735 21.7392C29.2471 21.4746 29.0264 21.2639 28.7526 21.1462C26.7811 20.2761 24.6383 19.8374 22.4746 19.861C20.3109 19.8847 18.1787 20.37 16.2277 21.2829C16.1557 21.3175 16.0765 21.3354 15.9963 21.3354C15.9161 21.3354 15.8369 21.3175 15.7649 21.2829C13.813 20.3719 11.6807 19.8877 9.51709 19.8641C7.35347 19.8405 5.21065 20.278 3.23833 21.1462C2.95725 21.2675 2.73286 21.487 2.60931 21.7615C2.51782 21.9751 2.49437 22.2106 2.54199 22.4373C2.58962 22.6641 2.70612 22.8716 2.87633 23.0329C3.04654 23.1942 3.26257 23.3017 3.4963 23.3415C3.73002 23.3813 3.97061 23.3515 4.18674 23.256C5.96499 22.4672 7.90822 22.0966 9.86003 22.1742C11.8118 22.2518 13.7177 22.7754 15.4243 23.7027C15.6009 23.7997 15.8001 23.8506 16.0028 23.8506C16.2054 23.8506 16.4047 23.7997 16.5813 23.7027C18.2817 22.7808 20.1794 22.2591 22.1231 22.1793C24.0668 22.0995 26.0027 22.4639 27.7765 23.2433C28.023 23.3579 28.3017 23.3892 28.5685 23.3323C28.7382 23.2944 28.8973 23.2203 29.0343 23.1153C29.1712 23.0103 29.2826 22.877 29.3605 22.725C29.4384 22.573 29.4809 22.4061 29.4848 22.2362C29.4887 22.0663 29.454 21.8977 29.3833 21.7424L29.3735 21.7392Z" fill="#0077CB"/>
<path d="M22.9562 13.8184C22.8711 13.7 22.7571 13.6042 22.6245 13.5395C22.4919 13.4748 22.345 13.4434 22.1968 13.448H19.3353V11.6991H20.9812C21.1293 11.704 21.2764 11.6726 21.4091 11.6079C21.5417 11.5433 21.6556 11.4472 21.7405 11.3287C21.8723 11.132 21.9425 10.9022 21.9425 10.6673C21.9425 10.4323 21.8723 10.2025 21.7405 10.0059C21.6555 9.88747 21.5415 9.79169 21.4089 9.72727C21.2763 9.66285 21.1292 9.63182 20.9812 9.63702H16.7443V7.94061H20.8801C21.0283 7.94548 21.1754 7.91415 21.308 7.84946C21.4406 7.78476 21.5546 7.68876 21.6395 7.57017C21.7749 7.37577 21.8454 7.14535 21.8416 6.91036C21.8453 6.67441 21.7747 6.44302 21.6395 6.24738C21.5543 6.12919 21.4402 6.03357 21.3077 5.96917C21.1751 5.90477 21.0281 5.87361 20.8801 5.87852H15.791C15.3151 5.87852 14.9762 5.98346 14.7464 6.1965C14.5166 6.40955 14.4042 6.74661 14.4042 7.20926V10.3668C14.4042 10.8294 14.5166 11.1617 14.7464 11.3795C14.9762 11.5973 15.3151 11.6975 15.791 11.6975H17.0115V13.4464H14.1516C14.0035 13.4418 13.8565 13.4733 13.7239 13.5379C13.5913 13.6026 13.4773 13.6985 13.3922 13.8168C13.2604 14.0134 13.1902 14.2433 13.1902 14.4782C13.1902 14.7132 13.2604 14.943 13.3922 15.1396C13.4771 15.2582 13.5911 15.3542 13.7237 15.4189C13.8563 15.4836 14.0034 15.5149 14.1516 15.5101H22.1968C22.345 15.5147 22.4919 15.4832 22.6245 15.4185C22.7571 15.3538 22.8711 15.258 22.9562 15.1396C23.088 14.943 23.1582 14.7132 23.1582 14.4782C23.1582 14.2433 23.088 14.0134 22.9562 13.8168V13.8184Z" fill="white"/>
<path d="M10.8192 13.4655H5.48395C5.33339 13.4601 5.18387 13.4919 5.04917 13.5577C4.91447 13.6236 4.79892 13.7214 4.71316 13.8423C4.58005 14.0463 4.50935 14.2832 4.50935 14.5251C4.50935 14.767 4.58005 15.0039 4.71316 15.208C4.79892 15.3288 4.91447 15.4267 5.04917 15.4925C5.18387 15.5584 5.33339 15.5901 5.48395 15.5848H9.86099V17.2478C9.85448 17.4117 9.8914 17.5745 9.96818 17.7204C10.045 17.8664 10.159 17.9905 10.2994 18.0809C10.5215 18.221 10.7804 18.2955 11.0449 18.2955C11.3094 18.2955 11.5683 18.221 11.7904 18.0809C11.9307 17.9905 12.0448 17.8664 12.1216 17.7204C12.1984 17.5745 12.2353 17.4117 12.2288 17.2478V14.8248C12.2288 14.3479 12.1147 14.0156 11.88 13.7914C11.6454 13.5672 11.3048 13.4655 10.8192 13.4655Z" fill="white"/>
<path d="M13.1544 10.7976C13.0694 10.6792 12.9554 10.5835 12.8227 10.519C12.6901 10.4546 12.5431 10.4236 12.395 10.4288H9.53671V9.65134C9.53636 9.59006 9.5309 9.52892 9.52042 9.4685H11.1875C11.3355 9.47341 11.4824 9.44226 11.615 9.37786C11.7476 9.31346 11.8617 9.21784 11.9469 9.09965C12.0787 8.90303 12.1489 8.67319 12.1489 8.43825C12.1489 8.20332 12.0787 7.97348 11.9469 7.77686C11.8617 7.65848 11.7477 7.56263 11.6152 7.49796C11.4826 7.43329 11.3356 7.40183 11.1875 7.40642H6.95058V5.869H11.0864C11.2346 5.87358 11.3816 5.84213 11.5141 5.77745C11.6467 5.71278 11.7607 5.61694 11.8458 5.49855C11.9772 5.30179 12.0472 5.07201 12.0472 4.83716C12.0472 4.60231 11.9772 4.37253 11.8458 4.17577C11.7611 4.05749 11.6474 3.96178 11.515 3.89736C11.3827 3.83293 11.2359 3.80184 11.0881 3.80691H5.98913C5.51492 3.80691 5.17434 3.91184 4.9462 4.12489C4.71806 4.33793 4.60236 4.67499 4.60236 5.13765V8.13618C4.60236 8.59724 4.7148 8.93112 4.9462 9.14734C5.1776 9.36357 5.51492 9.46532 5.98913 9.46532H7.22597C7.21549 9.52574 7.21004 9.58689 7.20968 9.64816V10.4256H4.3514C4.20333 10.4204 4.05629 10.4514 3.92366 10.5159C3.79102 10.5803 3.67702 10.6761 3.59202 10.7945C3.46021 10.9911 3.39001 11.2209 3.39001 11.4559C3.39001 11.6908 3.46021 11.9206 3.59202 12.1173C3.67694 12.2358 3.79088 12.3318 3.9235 12.3965C4.05612 12.4612 4.20321 12.4926 4.3514 12.4877H12.395C12.5432 12.4927 12.6903 12.4614 12.823 12.3967C12.9556 12.332 13.0696 12.236 13.1544 12.1173C13.2862 11.9206 13.3564 11.6908 13.3564 11.4559C13.3564 11.2209 13.2862 10.9911 13.1544 10.7945V10.7976Z" fill="white"/>
<path d="M27.9086 5.12651C27.5534 5.06927 27.1998 5.03111 26.8461 5.00886L24.9444 16.3225C24.922 16.456 24.9326 16.5928 24.9754 16.7216L25.474 18.2113C25.4888 18.2558 25.5158 18.2956 25.5521 18.3261C25.5885 18.3566 25.6328 18.3768 25.6801 18.3843C25.7274 18.3919 25.776 18.3866 25.8204 18.3689C25.8649 18.3513 25.9035 18.3221 25.932 18.2844L26.8918 17.0284C26.9757 16.92 27.0316 16.7935 27.0547 16.6595L28.9499 5.34592C28.611 5.25688 28.2639 5.18375 27.9086 5.12651Z" fill="#F9A12C"/>
<path d="M28.0585 4.24095C28.4137 4.29818 28.7608 4.37132 29.103 4.45717L29.2986 3.29655C29.3406 3.04371 29.2785 2.78492 29.126 2.57649C28.9734 2.36806 28.7426 2.22687 28.4838 2.18363L28.3437 2.16138C28.0833 2.12055 27.817 2.18216 27.6031 2.33268C27.3893 2.4832 27.2454 2.71034 27.203 2.96427L27.0074 4.12488C27.348 4.14396 27.7032 4.18371 28.0585 4.24095Z" fill="#FB8CB0"/>
</svg>
