<svg width="120" height="68" viewBox="0 0 120 68" fill="none" xmlns="http://www.w3.org/2000/svg">
<g clip-path="url(#clip0_1_2283)">
<path d="M57.4584 41.6646C57.4584 41.6646 53.3949 33.7154 47.3835 32.2933C41.3722 30.8712 29.9606 32.4273 29.044 41.8556C28.1274 51.2838 36.2393 65.6169 54.3878 67.0319C72.5363 68.4469 86.3768 58.7441 86.3768 58.7441L86.0752 48.8923C86.0752 48.8923 75.4236 56.3484 57.4584 41.6646Z" fill="white"/>
<path d="M84.8445 49.9406C84.8445 49.9406 86.609 52.1589 84.5361 59.5489L86.9934 58.9609L96.5468 60.2956C96.5468 60.2956 97.1467 58.1521 96.8668 57.1915C96.5869 56.2309 91.8391 44.8882 91.8391 44.8882C91.8391 44.8882 90.127 45.4167 89.6188 45.8628C89.1106 46.3088 84.8445 49.9406 84.8445 49.9406Z" fill="#9FA1A0"/>
<path d="M51.1335 35.0951C52.918 36.5453 55.2072 38.4849 57.4853 40.6348C59.6467 39.3998 62.1846 37.6331 64.6685 35.4274C70.7634 30.0154 69.2941 23.6663 66.6436 17.6568C63.9932 11.6473 53.7849 1.27604 52.3646 1.03151C50.9442 0.786973 51.5538 6.89118 51.5538 6.89118L53.9584 24.1502L51.1124 34.6402C51.1124 34.6402 51.1198 34.8091 51.1335 35.0951Z" fill="#DCDEDD"/>
<path d="M52.3646 1.03151C50.9442 0.786973 51.5537 6.89118 51.5537 6.89118L52.5122 13.7707C55.3797 13.4745 59.6008 13.3037 64.4773 13.9326C60.4902 8.1304 53.5199 1.23048 52.3646 1.03151Z" fill="#AFAFAF"/>
<path d="M56.9097 67.9773C39.2483 67.9791 31.6846 55.7525 28.7051 50.9381C28.5259 50.649 28.3626 50.3848 28.2135 50.1502C26.5578 47.5426 26.6383 43.0902 28.4137 39.0712C30.3469 34.6952 33.9172 31.7515 38.2087 30.9952C47.435 29.3697 50.2198 32.1658 56.3219 38.293L57.3796 39.3529L70.3455 48.4815C72.2509 49.7423 81.3394 50.5889 83.8446 49.4126C84.9383 48.8985 86.2938 47.633 87.4902 46.5162C89.4974 44.6425 91.0823 43.1609 92.3989 44.1257C93.895 45.2203 98.4791 57.4825 98.3089 59.9327C98.2626 60.5968 97.9389 60.9049 97.6757 61.0462C96.9908 61.4148 95.8503 61.2504 92.7615 60.6878C90.2789 60.2352 86.8779 59.6149 85.6167 60.0486C85.1949 60.1931 84.7926 60.516 84.2358 60.9631C82.0261 62.7361 77.9133 66.0361 61.1077 67.7574C59.6498 67.9071 58.249 67.9773 56.9097 67.9773ZM42.8829 32.4133C41.6321 32.4133 40.2128 32.563 38.5379 32.8583C33.5287 33.7412 31.1305 37.6081 30.1468 39.8351C28.6632 43.1928 28.5231 47.1052 29.8132 49.1368C29.9658 49.3775 30.1332 49.6476 30.3163 49.9437C33.6371 55.3091 41.4131 67.8761 60.9145 65.8758C77.1632 64.2113 80.992 61.1391 83.0491 59.4884C83.7021 58.9642 84.2664 58.5116 85.0008 58.2594C86.7309 57.6664 90.1153 58.2821 93.1014 58.8266C94.2067 59.028 95.6321 59.288 96.4053 59.3452C96.0876 56.7404 92.484 47.3412 91.3634 45.77C90.8061 46.0101 89.6042 47.1325 88.7838 47.8982C87.4223 49.1692 86.0145 50.4837 84.6511 51.1243C81.4971 52.6064 71.7393 51.6734 69.2762 50.0431L56.2208 40.8517C56.1767 40.8203 56.135 40.7857 56.0969 40.7474L54.9788 39.6269C50.0963 34.725 47.7934 32.4133 42.8829 32.4133Z" fill="black"/>
<path d="M40.1764 44.204C41.6665 44.204 42.8744 42.9969 42.8744 41.5078C42.8744 40.0187 41.6665 38.8116 40.1764 38.8116C38.6863 38.8116 37.4784 40.0187 37.4784 41.5078C37.4784 42.9969 38.6863 44.204 40.1764 44.204Z" fill="black"/>
<path d="M39.2837 41.6648C39.5636 41.6648 39.7906 41.4381 39.7906 41.1583C39.7906 40.8786 39.5636 40.6518 39.2837 40.6518C39.0038 40.6518 38.7769 40.8786 38.7769 41.1583C38.7769 41.4381 39.0038 41.6648 39.2837 41.6648Z" fill="white"/>
<path d="M42.8745 47.625C44.694 47.625 46.1691 46.9179 46.1691 46.0457C46.1691 45.1735 44.694 44.4664 42.8745 44.4664C41.055 44.4664 39.58 45.1735 39.58 46.0457C39.58 46.9179 41.055 47.625 42.8745 47.625Z" fill="#FFC0CB"/>
<path d="M50.753 35.2919C50.5291 35.2919 50.3046 35.2131 50.1242 35.0533C49.7332 34.7063 49.6976 34.1086 50.0449 33.7179C50.0805 33.6773 53.8552 29.2384 52.8593 20.2105C52.503 16.9805 51.8608 13.633 51.2943 10.6797C50.1208 4.56081 49.613 1.56911 50.8864 0.432724C51.1507 0.196932 51.7307 -0.155432 52.6457 0.128378C56.2809 1.25717 69.1479 15.6855 70.1239 24.7604C70.1799 25.2798 69.8034 25.746 69.2834 25.8019C68.7638 25.8596 68.2965 25.4818 68.2405 24.9623C67.3343 16.5362 54.9259 2.87988 52.1097 1.94326C51.7406 2.95104 52.5215 7.02251 53.1549 10.3238C53.7281 13.3118 54.3777 16.6984 54.7421 20.0032C55.8367 29.9259 51.6405 34.7726 51.4615 34.9741C51.2742 35.1845 51.014 35.2919 50.753 35.2919Z" fill="black"/>
<path d="M42.2594 30.7604L41.9395 23.5119C41.9395 23.5119 52.5513 24.0338 57.9847 30.9013L53.3932 35.0181C53.3932 35.0181 49.0712 31.2989 42.2594 30.7604Z" fill="#FAFAFA"/>
<path d="M54.9876 34.5353C54.6814 34.5356 54.381 34.3875 54.1986 34.1141C50.6734 28.8316 42.2596 29.0593 42.1759 29.0656C41.6579 29.0693 41.2146 28.6755 41.1961 28.1532C41.1779 27.631 41.5869 27.1932 42.1097 27.175C42.4996 27.1586 51.6697 26.9138 55.7746 33.0648C56.0648 33.4997 55.9471 34.0869 55.5119 34.3765C55.3503 34.4841 55.1679 34.5353 54.9876 34.5353Z" fill="#159DC7"/>
<path d="M53.3932 35.9641C53.1731 35.9641 52.9527 35.8879 52.7749 35.7348C52.7349 35.7006 48.5812 32.209 42.1847 31.7033C41.7079 31.6656 41.3342 31.279 41.3132 30.802L40.9931 23.5536C40.9813 23.2879 41.0824 23.0292 41.2713 22.8414C41.4602 22.6539 41.7229 22.5562 41.9858 22.5673C42.4367 22.5895 53.0923 23.1922 58.7278 30.3149C59.0377 30.7066 58.9894 31.2715 58.6173 31.6051L54.0258 35.7221C53.8462 35.8833 53.6198 35.9641 53.3932 35.9641ZM43.1696 29.8995C48.2926 30.5022 51.9214 32.7581 53.3474 33.7881L56.6684 30.8103C52.4567 26.1497 45.5446 24.8803 42.9337 24.5586L43.1696 29.8995Z" fill="black"/>
<path d="M55.4333 43.3394C55.4333 43.3394 63.8841 54.3171 70.2079 52.2248C70.2079 52.2248 85.0076 43.9878 88.1935 42.2392C91.3793 40.4906 102.092 35.2957 109.828 33.8558C117.563 32.4159 119.612 28.5441 118.764 27.4773C117.916 26.4106 106.424 18.3897 90.3079 18.3651C74.1918 18.3405 69.7612 21.4925 55.4333 43.3394Z" fill="#DCDEDD"/>
<path d="M99.109 37.1939C102.68 35.7705 106.525 34.4707 109.827 33.8558C117.563 32.4159 119.612 28.5441 118.764 27.4773C117.916 26.4106 106.424 18.3897 90.3077 18.3651C88.8005 18.3628 87.3956 18.3883 86.0751 18.4543C90.639 22.8889 96.9415 30.001 99.109 37.1939Z" fill="#AFAFAF"/>
<path d="M70.2071 53.1707C69.7521 53.1707 69.3511 52.8428 69.2739 52.3805C69.1879 51.8651 69.5366 51.3778 70.0522 51.2919C71.2412 51.0938 75.7383 48.4344 80.087 45.8619C85.8637 42.4451 92.4119 38.5725 97.0195 36.7532C100.403 35.4177 103.536 34.5825 106.3 33.8456C110.546 32.7138 114.212 31.7363 117.486 29.3674C118.255 28.8111 118.121 28.4026 118.057 28.2063C116.902 24.6752 101.593 19.1156 85.6394 19.1778C67.2848 19.2558 56.4079 43.4754 56.3001 43.7198C56.0896 44.1987 55.531 44.4153 55.0519 44.2052C54.573 43.9946 54.3556 43.4367 54.5663 42.9586C55.0262 41.9134 66.0587 17.3692 85.631 17.286C85.7244 17.2856 85.8202 17.2853 85.9131 17.2853C101.102 17.2853 118.173 22.4676 119.858 27.6191C120.092 28.3342 120.239 29.7115 118.597 30.8994C115.04 33.4735 111.216 34.4928 106.789 35.6733C103.942 36.4324 100.998 37.2173 97.7159 38.5128C93.2475 40.2762 86.7687 44.1086 81.0521 47.4898C75.2083 50.9464 71.8304 52.9134 70.3639 53.1577C70.3112 53.1665 70.2585 53.1707 70.2071 53.1707Z" fill="black"/>
<path d="M91.4416 62.7006C90.9246 62.7006 90.4496 62.3597 90.3026 61.8387L88.9429 57.0239C86.3281 58.2672 81.8514 59.0242 80.2734 59.263C79.6283 59.3636 79.0234 58.9166 78.9258 58.2714C78.8277 57.6257 79.2726 57.023 79.9187 56.9251C83.612 56.3657 88.0407 55.2134 88.7473 54.39C89.0313 54.0593 89.4757 53.9124 89.9012 54.0048C90.3271 54.0985 90.6675 54.4191 90.7859 54.8384L92.5817 61.1968C92.7593 61.8253 92.393 62.4784 91.7636 62.6557C91.6563 62.6858 91.548 62.7006 91.4416 62.7006Z" fill="#F49807"/>
<path d="M28.9738 45.3077L1.71082 44.2022L0.947722 62.9958L28.2107 64.1013L28.9738 45.3077Z" fill="white"/>
<path d="M28.2102 65.0472C28.1975 65.0472 28.1846 65.0468 28.1718 65.0463L0.908832 63.9407C0.386232 63.9194 -0.020268 63.4793 0.000781992 62.9574L0.764782 44.1641C0.786032 43.6422 1.22123 43.2394 1.74963 43.2574L29.0126 44.3626C29.2637 44.3728 29.5003 44.4818 29.6705 44.6665C29.8409 44.8508 29.9308 45.0952 29.9207 45.3459L29.1567 64.1397C29.1465 64.3905 29.0369 64.627 28.8521 64.7969C28.6771 64.9581 28.4477 65.0472 28.2102 65.0472ZM1.93208 62.0891L27.3024 63.1181L27.9894 46.2143L2.61908 45.1857L1.93208 62.0891Z" fill="black"/>
<path d="M14.9607 54.1515L26.971 45.2262L3.71448 44.2832L14.9607 54.1515Z" fill="white"/>
<path d="M14.9608 55.0975C14.7367 55.0975 14.5136 55.0185 14.3353 54.862L3.0891 44.9936C2.7878 44.7294 2.6858 44.3036 2.83495 43.9318C2.98385 43.5595 3.35085 43.317 3.75275 43.3383L27.0093 44.2814C27.4103 44.2976 27.7574 44.5645 27.876 44.9474C27.9944 45.3303 27.8582 45.746 27.5363 45.9852L15.5259 54.9105C15.3575 55.0357 15.159 55.0975 14.9608 55.0975ZM6.35 45.3367L15.01 52.9361L24.2586 46.0632L6.35 45.3367Z" fill="black"/>
<path d="M14.9008 58.7186C17.6399 58.7186 19.8604 56.5011 19.8604 53.7657C19.8604 51.0303 17.6399 48.8127 14.9008 48.8127C12.1618 48.8127 9.94128 51.0303 9.94128 53.7657C9.94128 56.5011 12.1618 58.7186 14.9008 58.7186Z" fill="#FF2222"/>
<path d="M14.8912 59.4279C13.5322 59.4279 12.2329 58.9467 11.194 58.0502C10.048 57.0613 9.35611 55.6859 9.24581 54.1775C9.01826 51.0637 11.37 48.3452 14.488 48.118C17.6104 47.8898 20.3281 50.2392 20.5559 53.3531C20.7834 56.4669 18.4315 59.1854 15.3135 59.4126C15.1722 59.4227 15.0314 59.4279 14.8912 59.4279ZM14.9037 49.5216C14.8001 49.5216 14.6963 49.5253 14.5916 49.5331C12.2547 49.7036 10.4922 51.7403 10.6629 54.0741C10.7454 55.2047 11.2639 56.2355 12.1227 56.9764C12.9813 57.7176 14.0757 58.0807 15.2099 57.9976C17.5468 57.8271 19.3091 55.7899 19.1389 53.4566C18.9759 51.2277 17.1072 49.5216 14.9037 49.5216Z" fill="#C90909"/>
<path d="M16.7344 53.3339L13.938 51.9823C13.7001 51.8673 13.4268 52.0527 13.446 52.3162L13.6721 55.4105C13.6914 55.6739 13.9887 55.8178 14.2073 55.6695L16.7777 53.9268C16.9965 53.7784 16.9724 53.449 16.7344 53.3339Z" fill="white"/>
<path d="M31.7372 41.6363C34.4548 43.8978 33.5198 47.3469 31.6366 48.3387C29.7535 49.3305 20.6322 44.5155 19.0691 41.9234C17.5059 39.3314 28.9395 39.308 31.7372 41.6363Z" fill="#F49B03"/>
<path d="M30.9707 49.3997C27.427 49.3997 19.7185 44.8338 18.2578 42.4118C17.7794 41.6183 17.9179 40.7523 18.6192 40.1515C20.8023 38.281 29.7805 38.7765 32.3436 40.9098C33.8048 42.1254 34.5371 43.8264 34.3528 45.5759C34.1877 47.1444 33.3161 48.5235 32.0783 49.1756C31.7867 49.329 31.4105 49.3997 30.9707 49.3997ZM19.9398 41.5218C21.5939 43.9549 29.8381 48.052 31.202 47.4987C31.8705 47.1463 32.3706 46.3126 32.4689 45.3783C32.5378 44.7252 32.4553 43.4653 31.131 42.3629C29.8418 41.2904 25.5947 40.6249 22.2224 40.9653C20.8578 41.1029 20.1928 41.3639 19.9398 41.5218Z" fill="black"/>
</g>
<defs>
<clipPath id="clip0_1_2283">
<rect width="120" height="68" fill="white"/>
</clipPath>
</defs>
</svg>
